<svg width="584" height="186" viewBox="0 0 584 186" fill="none" xmlns="http://www.w3.org/2000/svg">
<path d="M94.6619 179.855H95.8409C95.8239 178.818 94.9716 178.102 93.6761 178.102C92.4006 178.102 91.4659 178.807 91.4716 179.864C91.4688 180.722 92.0739 181.213 93.0568 181.449L93.6903 181.608C94.3239 181.761 94.6761 181.943 94.679 182.335C94.6761 182.761 94.2727 183.051 93.6477 183.051C93.0085 183.051 92.5483 182.756 92.5085 182.173H91.3182C91.3494 183.432 92.25 184.082 93.6619 184.082C95.0824 184.082 95.9176 183.403 95.9205 182.338C95.9176 181.369 95.1875 180.855 94.1761 180.628L93.6534 180.503C93.1477 180.386 92.7244 180.199 92.733 179.781C92.733 179.406 93.0653 179.131 93.6676 179.131C94.2557 179.131 94.6165 179.398 94.6619 179.855Z" fill="#000634"/>
<path d="M27.6619 179.855H28.8409C28.8239 178.818 27.9716 178.102 26.6761 178.102C25.4006 178.102 24.4659 178.807 24.4716 179.864C24.4688 180.722 25.0739 181.213 26.0568 181.449L26.6903 181.608C27.3239 181.761 27.6761 181.943 27.679 182.335C27.6761 182.761 27.2727 183.051 26.6477 183.051C26.0085 183.051 25.5483 182.756 25.5085 182.173H24.3182C24.3494 183.432 25.25 184.082 26.6619 184.082C28.0824 184.082 28.9176 183.403 28.9205 182.338C28.9176 181.369 28.1875 180.855 27.1761 180.628L26.6534 180.503C26.1477 180.386 25.7244 180.199 25.733 179.781C25.733 179.406 26.0653 179.131 26.6676 179.131C27.2557 179.131 27.6165 179.398 27.6619 179.855Z" fill="#000634"/>
<path d="M2.47159 136H6.61932V134.994H4.17614V134.955L5.02557 134.122C6.22159 133.031 6.54261 132.486 6.54261 131.824C6.54261 130.815 5.71875 130.102 4.47159 130.102C3.25 130.102 2.41193 130.832 2.41477 131.974H3.58239C3.57955 131.418 3.93182 131.077 4.46307 131.077C4.97443 131.077 5.35511 131.395 5.35511 131.906C5.35511 132.369 5.07102 132.688 4.54261 133.196L2.47159 135.114V136ZM9.7919 136.128C11.255 136.128 12.1385 135.014 12.1413 133.097C12.1442 131.193 11.2493 130.102 9.7919 130.102C8.33168 130.102 7.44531 131.19 7.44247 133.097C7.43679 135.009 8.32599 136.125 9.7919 136.128ZM9.7919 135.108C9.12429 135.108 8.69247 134.438 8.69531 133.097C8.69815 131.776 9.12713 131.111 9.7919 131.111C10.4538 131.111 10.8857 131.776 10.8857 133.097C10.8885 134.438 10.4567 135.108 9.7919 135.108Z" fill="#000634"/>
<path d="M6.75284 168.128C8.21591 168.128 9.09943 167.014 9.10227 165.097C9.10511 163.193 8.21023 162.102 6.75284 162.102C5.29261 162.102 4.40625 163.19 4.40341 165.097C4.39773 167.009 5.28693 168.125 6.75284 168.128ZM6.75284 167.108C6.08523 167.108 5.65341 166.438 5.65625 165.097C5.65909 163.776 6.08807 163.111 6.75284 163.111C7.41477 163.111 7.84659 163.776 7.84659 165.097C7.84943 166.438 7.41761 167.108 6.75284 167.108Z" fill="#000634"/>
<path d="M2.38352 104.977H5.17614V106H6.35227V104.977H7.07386V103.991H6.35227V100.182H4.8125L2.38352 104.009V104.977ZM5.19886 103.991H3.62216V103.946L5.15341 101.523H5.19886V103.991ZM10.1747 106.128C11.6378 106.128 12.5213 105.014 12.5241 103.097C12.527 101.193 11.6321 100.102 10.1747 100.102C8.71449 100.102 7.82812 101.19 7.82528 103.097C7.8196 105.009 8.70881 106.125 10.1747 106.128ZM10.1747 105.108C9.5071 105.108 9.07528 104.438 9.07812 103.097C9.08097 101.776 9.50994 101.111 10.1747 101.111C10.8366 101.111 11.2685 101.776 11.2685 103.097C11.2713 104.438 10.8395 105.108 10.1747 105.108Z" fill="#000634"/>
<path d="M4.70455 73.0795C6 73.0852 6.88352 72.2358 6.88068 71.0511C6.88352 69.9602 6.12216 69.1733 5.09091 69.1733C4.4517 69.1733 3.88636 69.4801 3.625 69.9943H3.58523C3.59091 68.8608 3.98864 68.1562 4.74716 68.1562C5.19318 68.1562 5.5142 68.4006 5.60795 68.8068H6.82102C6.70455 67.8494 5.90909 67.1023 4.74716 67.1023C3.30966 67.1023 2.38636 68.267 2.38068 70.2216C2.37784 72.3523 3.50852 73.0739 4.70455 73.0795ZM4.69886 72.1136C4.13068 72.1136 3.71023 71.6562 3.71023 71.0881C3.71307 70.5227 4.14205 70.0625 4.70739 70.0625C5.27557 70.0625 5.69034 70.5085 5.6875 71.0852C5.69034 71.6676 5.26705 72.1136 4.69886 72.1136ZM10.0341 73.1278C11.4972 73.1278 12.3807 72.0142 12.3835 70.0966C12.3864 68.1932 11.4915 67.1023 10.0341 67.1023C8.57386 67.1023 7.6875 68.1903 7.68466 70.0966C7.67898 72.0085 8.56818 73.125 10.0341 73.1278ZM10.0341 72.108C9.36648 72.108 8.93466 71.4375 8.9375 70.0966C8.94034 68.7756 9.36932 68.1108 10.0341 68.1108C10.696 68.1108 11.1278 68.7756 11.1278 70.0966C11.1307 71.4375 10.6989 72.108 10.0341 72.108Z" fill="#000634"/>
<path d="M4.64205 41.0795C5.95455 41.0795 6.89773 40.3778 6.90057 39.4347C6.89773 38.7074 6.33807 38.1136 5.6392 37.9972V37.9574C6.24716 37.8324 6.68182 37.3068 6.68466 36.6676C6.68182 35.767 5.81818 35.1023 4.64205 35.1023C3.46307 35.1023 2.59943 35.767 2.60227 36.6676C2.59943 37.304 3.02841 37.8324 3.64773 37.9574V37.9972C2.9375 38.1136 2.38352 38.7074 2.38636 39.4347C2.38352 40.3778 3.32955 41.0795 4.64205 41.0795ZM4.64205 40.1761C4.05682 40.1761 3.66477 39.8295 3.66477 39.3381C3.66477 38.8352 4.0767 38.4716 4.64205 38.4716C5.20455 38.4716 5.61932 38.8352 5.61932 39.3381C5.61932 39.8324 5.22443 40.1761 4.64205 40.1761ZM4.64205 37.5767C4.15057 37.5767 3.80114 37.2557 3.80114 36.7955C3.80114 36.3409 4.14489 36.0284 4.64205 36.0284C5.13636 36.0284 5.48295 36.3438 5.48295 36.7955C5.48295 37.2557 5.13068 37.5767 4.64205 37.5767ZM10.0419 41.1278C11.505 41.1278 12.3885 40.0142 12.3913 38.0966C12.3942 36.1932 11.4993 35.1023 10.0419 35.1023C8.58168 35.1023 7.69531 36.1903 7.69247 38.0966C7.68679 40.0085 8.57599 41.125 10.0419 41.1278ZM10.0419 40.108C9.37429 40.108 8.94247 39.4375 8.94531 38.0966C8.94815 36.7756 9.37713 36.1108 10.0419 36.1108C10.7038 36.1108 11.1357 36.7756 11.1357 38.0966C11.1385 39.4375 10.7067 40.108 10.0419 40.108Z" fill="#000634"/>
<path d="M3.00284 2.18182H1.84659L0.40625 3.09375V4.18466L1.73864 3.34943H1.77273V8H3.00284V2.18182ZM6.6669 8.12784C8.12997 8.12784 9.01349 7.0142 9.01634 5.09659C9.01918 3.19318 8.12429 2.10227 6.6669 2.10227C5.20668 2.10227 4.32031 3.19034 4.31747 5.09659C4.31179 7.00852 5.20099 8.125 6.6669 8.12784ZM6.6669 7.10795C5.99929 7.10795 5.56747 6.4375 5.57031 5.09659C5.57315 3.77557 6.00213 3.1108 6.6669 3.1108C7.32884 3.1108 7.76065 3.77557 7.76065 5.09659C7.76349 6.4375 7.33168 7.10795 6.6669 7.10795ZM12.1747 8.12784C13.6378 8.12784 14.5213 7.0142 14.5241 5.09659C14.527 3.19318 13.6321 2.10227 12.1747 2.10227C10.7145 2.10227 9.82812 3.19034 9.82528 5.09659C9.8196 7.00852 10.7088 8.125 12.1747 8.12784ZM12.1747 7.10795C11.5071 7.10795 11.0753 6.4375 11.0781 5.09659C11.081 3.77557 11.5099 3.1108 12.1747 3.1108C12.8366 3.1108 13.2685 3.77557 13.2685 5.09659C13.2713 6.4375 12.8395 7.10795 12.1747 7.10795Z" fill="#000634"/>
<path d="M163.506 178.182V184H164.699V180.199H164.747L166.253 183.972H167.065L168.571 180.213H168.619V184H169.812V178.182H168.295L166.693 182.091H166.625L165.023 178.182H163.506Z" fill="#000634"/>
<path d="M235.284 179.196H237.065V184H238.281V179.196H240.062V178.182H235.284V179.196Z" fill="#000634"/>
<path d="M305.815 184H307.014L308.119 180.196H308.165L309.273 184H310.472L312.136 178.182H310.793L309.83 182.233H309.778L308.719 178.182H307.568L306.506 182.224H306.457L305.494 178.182H304.151L305.815 184Z" fill="#000634"/>
<path d="M373.284 179.196H375.065V184H376.281V179.196H378.062V178.182H373.284V179.196Z" fill="#000634"/>
<path d="M439.506 184H440.736V181.597H443.102V180.582H440.736V179.196H443.358V178.182H439.506V184Z" fill="#000634"/>
<path d="M510.662 179.855H511.841C511.824 178.818 510.972 178.102 509.676 178.102C508.401 178.102 507.466 178.807 507.472 179.864C507.469 180.722 508.074 181.213 509.057 181.449L509.69 181.608C510.324 181.761 510.676 181.943 510.679 182.335C510.676 182.761 510.273 183.051 509.648 183.051C509.009 183.051 508.548 182.756 508.509 182.173H507.318C507.349 183.432 508.25 184.082 509.662 184.082C511.082 184.082 511.918 183.403 511.92 182.338C511.918 181.369 511.188 180.855 510.176 180.628L509.653 180.503C509.148 180.386 508.724 180.199 508.733 179.781C508.733 179.406 509.065 179.131 509.668 179.131C510.256 179.131 510.616 179.398 510.662 179.855Z" fill="#000634"/>
<path d="M576.662 179.855H577.841C577.824 178.818 576.972 178.102 575.676 178.102C574.401 178.102 573.466 178.807 573.472 179.864C573.469 180.722 574.074 181.213 575.057 181.449L575.69 181.608C576.324 181.761 576.676 181.943 576.679 182.335C576.676 182.761 576.273 183.051 575.648 183.051C575.009 183.051 574.548 182.756 574.509 182.173H573.318C573.349 183.432 574.25 184.082 575.662 184.082C577.082 184.082 577.918 183.403 577.92 182.338C577.918 181.369 577.188 180.855 576.176 180.628L575.653 180.503C575.148 180.386 574.724 180.199 574.733 179.781C574.733 179.406 575.065 179.131 575.668 179.131C576.256 179.131 576.616 179.398 576.662 179.855Z" fill="#000634"/>
<path d="M24 77.6932C24 74.1029 27.6717 71.6827 30.9713 73.0982L32.4778 73.7445C40.9556 77.2455 57.8333 84.7234 74.9444 86.4229C91.8611 88.1225 108.778 84.7234 125.889 95.4984C142.806 106.477 159.722 131.63 176.833 137.171C193.711 142.507 210.667 128.231 227.778 126.294C244.617 124.492 261.611 135.369 278.722 135.369C295.522 135.369 312.556 124.492 329.278 120.855C346.428 117.354 363.5 120.753 380.222 115.417C397.333 109.876 414.444 95.6004 431.167 84.6214C448.239 73.8465 465.389 66.3686 482.111 68.306C499.144 70.1075 515.944 80.9845 533.056 86.4229C550.05 91.8614 566.889 91.8614 575.444 91.8614H579C581.761 91.8614 584 94.1 584 96.8614V163C584 165.761 581.761 168 579 168H575.522C567.044 168 550.167 168 533.056 168C516.139 168 499.222 168 482.111 168C465.194 168 448.278 168 431.167 168C414.289 168 397.333 168 380.222 168C363.383 168 346.389 168 329.278 168C312.478 168 295.444 168 278.722 168C261.572 168 244.5 168 227.778 168C210.667 168 193.556 168 176.833 168C159.761 168 142.611 168 125.889 168C108.856 168 92.0556 168 74.9444 168C57.95 168 41.1111 168 32.5556 168H29C26.2386 168 24 165.761 24 163V77.6932Z" fill="url(#paint0_linear)"/>
<defs>
<linearGradient id="paint0_linear" x1="304" y1="68" x2="304" y2="168" gradientUnits="userSpaceOnUse">
<stop stop-color="#EA5A09"/>
<stop offset="1" stop-color="#EE2F15"/>
</linearGradient>
</defs>
</svg>
