<svg width="18" height="18" viewBox="0 0 18 18" fill="none" xmlns="http://www.w3.org/2000/svg">
<path d="M2.57143 0C1.88944 0 1.23539 0.270917 0.753154 0.753154C0.270917 1.23539 0 1.88944 0 2.57143V15.4286C0 16.1106 0.270917 16.7646 0.753154 17.2468C1.23539 17.7291 1.88944 18 2.57143 18H15.4286C16.1106 18 16.7646 17.7291 17.2468 17.2468C17.7291 16.7646 18 16.1106 18 15.4286V2.57143C18 1.88944 17.7291 1.23539 17.2468 0.753154C16.7646 0.270917 16.1106 0 15.4286 0H2.57143ZM5.78571 5.46429C5.78571 5.72003 5.68412 5.9653 5.50328 6.14614C5.32244 6.32698 5.07717 6.42857 4.82143 6.42857C4.56568 6.42857 4.32041 6.32698 4.13958 6.14614C3.95874 5.9653 3.85714 5.72003 3.85714 5.46429C3.85714 5.20854 3.95874 4.96327 4.13958 4.78243C4.32041 4.60159 4.56568 4.5 4.82143 4.5C5.07717 4.5 5.32244 4.60159 5.50328 4.78243C5.68412 4.96327 5.78571 5.20854 5.78571 5.46429ZM4.82143 10.2857C4.56568 10.2857 4.32041 10.1841 4.13958 10.0033C3.95874 9.82244 3.85714 9.57717 3.85714 9.32143C3.85714 9.06568 3.95874 8.82041 4.13958 8.63958C4.32041 8.45874 4.56568 8.35714 4.82143 8.35714C5.07717 8.35714 5.32244 8.45874 5.50328 8.63958C5.68412 8.82041 5.78571 9.06568 5.78571 9.32143C5.78571 9.57717 5.68412 9.82244 5.50328 10.0033C5.32244 10.1841 5.07717 10.2857 4.82143 10.2857ZM5.78571 13.1786C5.78571 13.4343 5.68412 13.6796 5.50328 13.8604C5.32244 14.0413 5.07717 14.1429 4.82143 14.1429C4.56568 14.1429 4.32041 14.0413 4.13958 13.8604C3.95874 13.6796 3.85714 13.4343 3.85714 13.1786C3.85714 12.9228 3.95874 12.6776 4.13958 12.4967C4.32041 12.3159 4.56568 12.2143 4.82143 12.2143C5.07717 12.2143 5.32244 12.3159 5.50328 12.4967C5.68412 12.6776 5.78571 12.9228 5.78571 13.1786ZM8.35714 5.14286H13.5C13.6705 5.14286 13.834 5.21059 13.9546 5.33115C14.0751 5.4517 14.1429 5.61522 14.1429 5.78571C14.1429 5.95621 14.0751 6.11972 13.9546 6.24028C13.834 6.36084 13.6705 6.42857 13.5 6.42857H8.35714C8.18665 6.42857 8.02313 6.36084 7.90257 6.24028C7.78201 6.11972 7.71429 5.95621 7.71429 5.78571C7.71429 5.61522 7.78201 5.4517 7.90257 5.33115C8.02313 5.21059 8.18665 5.14286 8.35714 5.14286ZM7.71429 9.64286C7.71429 9.47236 7.78201 9.30885 7.90257 9.18829C8.02313 9.06773 8.18665 9 8.35714 9H13.5C13.6705 9 13.834 9.06773 13.9546 9.18829C14.0751 9.30885 14.1429 9.47236 14.1429 9.64286C14.1429 9.81335 14.0751 9.97687 13.9546 10.0974C13.834 10.218 13.6705 10.2857 13.5 10.2857H8.35714C8.18665 10.2857 8.02313 10.218 7.90257 10.0974C7.78201 9.97687 7.71429 9.81335 7.71429 9.64286ZM8.35714 12.8571H13.5C13.6705 12.8571 13.834 12.9249 13.9546 13.0454C14.0751 13.166 14.1429 13.3295 14.1429 13.5C14.1429 13.6705 14.0751 13.834 13.9546 13.9546C13.834 14.0751 13.6705 14.1429 13.5 14.1429H8.35714C8.18665 14.1429 8.02313 14.0751 7.90257 13.9546C7.78201 13.834 7.71429 13.6705 7.71429 13.5C7.71429 13.3295 7.78201 13.166 7.90257 13.0454C8.02313 12.9249 8.18665 12.8571 8.35714 12.8571Z" fill="white" fill-opacity="0.5"/>
</svg>
