<svg width="14" height="17" viewBox="0 0 14 17" fill="none" xmlns="http://www.w3.org/2000/svg">
<path fill-rule="evenodd" clip-rule="evenodd" d="M8.30046 0.0410011C8.50347 0.0987271 8.68081 0.213505 8.80671 0.368643C8.9326 0.52378 9.00048 0.711187 9.00046 0.903607V5.4246H13.0005C13.1834 5.42453 13.3628 5.46982 13.5193 5.55555C13.6757 5.64128 13.8031 5.76417 13.8877 5.91083C13.9722 6.05749 14.0107 6.22232 13.9988 6.38736C13.987 6.55241 13.9253 6.71136 13.8205 6.84691L6.82046 15.8889C6.69863 16.0467 6.52429 16.1653 6.3228 16.2273C6.12131 16.2893 5.90318 16.2916 5.70015 16.2338C5.49713 16.176 5.31979 16.0612 5.19395 15.906C5.0681 15.7507 5.00032 15.5633 5.00045 15.3708V10.8498H1.00045C0.817528 10.8499 0.638091 10.8046 0.481664 10.7188C0.325236 10.6331 0.19781 10.5102 0.113255 10.3636C0.0286993 10.2169 -0.00974703 10.0521 0.00209984 9.88704C0.0139467 9.72199 0.075633 9.56304 0.180445 9.42749L7.18046 0.385501C7.30247 0.227978 7.47685 0.109731 7.67826 0.0479418C7.87967 -0.0138478 8.09763 -0.0159624 8.30046 0.0419053V0.0410011Z" fill="white"/>
</svg>
