<svg width="152" height="152" viewBox="0 0 152 152" fill="none" xmlns="http://www.w3.org/2000/svg">
<path d="M129.749 76C129.749 105.823 105.582 130 75.7695 130C45.9574 130 21.7899 105.823 21.7899 76C21.7899 46.1766 45.9574 22 75.7695 22C105.582 22 129.749 46.1766 129.749 76ZM48.3928 76C48.3928 91.1254 60.6498 103.387 75.7695 103.387C90.8892 103.387 103.146 91.1254 103.146 76C103.146 60.8745 90.8892 48.6129 75.7695 48.6129C60.6498 48.6129 48.3928 60.8745 48.3928 76Z" fill="#B9C0C9" fill-opacity="0.4"/>
<path d="M75.7695 23C75.7695 22.4477 76.2173 21.999 76.7695 22.0092C85.2818 22.167 93.6412 24.337 101.162 28.348C108.978 32.5159 115.648 38.5437 120.585 45.8996C125.522 53.2555 128.574 61.7137 129.471 70.5282C130.335 79.0107 129.178 87.5724 126.101 95.5138C125.902 96.0289 125.317 96.2736 124.806 96.0644L102.002 86.7338C101.491 86.5247 101.248 85.9414 101.438 85.423C102.866 81.5312 103.392 77.3612 102.971 73.2283C102.517 68.7635 100.971 64.4791 98.4702 60.7531C95.9695 57.0271 92.5907 53.9738 88.6319 51.8626C84.9675 49.9084 80.9104 48.817 76.7693 48.6654C76.2174 48.6452 75.7695 48.1994 75.7695 47.6471L75.7695 23Z" fill="#41D39F"/>
<path d="M84.833 128.396C84.9248 128.941 84.5578 129.458 84.0116 129.54C76.0999 130.723 68.0197 130.14 60.3534 127.825C52.3678 125.414 45.0474 121.191 38.9634 115.484C32.8795 109.777 28.1967 102.741 25.2804 94.9261C22.4807 87.4234 21.3819 79.397 22.0578 71.4258C22.1045 70.8755 22.5969 70.4762 23.1462 70.533L47.7096 73.0738C48.259 73.1306 48.6564 73.622 48.6196 74.173C48.3608 78.0515 48.9287 81.9447 50.2903 85.5936C51.7686 89.5551 54.1423 93.1214 57.2262 96.0142C60.3102 98.907 64.0209 101.048 68.0688 102.27C71.7972 103.396 75.7188 103.714 79.5728 103.208C80.1203 103.136 80.6361 103.501 80.7279 104.046L84.833 128.396Z" fill="#702DFF"/>
<path d="M124.807 96.0545C125.318 96.2646 125.563 96.8499 125.343 97.3568C121.844 105.424 116.436 112.527 109.582 118.045C102.729 123.562 94.6461 127.322 86.0353 129.006C85.492 129.112 84.9722 128.746 84.8779 128.201L80.6758 103.901C80.5819 103.358 80.9454 102.844 81.4842 102.728C85.6699 101.832 89.5953 99.9642 92.9418 97.27C96.2881 94.5759 98.9545 91.1367 100.731 87.2329C100.96 86.7305 101.542 86.4861 102.053 86.6961L124.807 96.0545Z" fill="#EEA415"/>
<path d="M23.1565 70.435C22.6072 70.3772 22.2079 69.8847 22.2759 69.3366C23.8772 56.4241 30.0788 44.5071 39.7616 35.7824C49.4444 27.0576 61.9407 22.1267 74.9497 21.8744C75.5019 21.8637 75.9503 22.312 75.9508 22.8643L75.9736 47.5409C75.9742 48.0932 75.5265 48.5394 74.9746 48.5601C68.5539 48.7998 62.4079 51.2854 57.6189 55.6006C52.8299 59.9157 49.7198 65.7704 48.8148 72.1316C48.737 72.6784 48.2467 73.0773 47.6975 73.0194L23.1565 70.435Z" fill="#EE3C15"/>
</svg>
