<svg width="100" height="100" viewBox="0 0 100 100" fill="none" xmlns="http://www.w3.org/2000/svg">
<path d="M31.1136 58.2386C35 58.2557 37.6506 55.7074 37.642 52.1534C37.6506 48.8807 35.3665 46.5199 32.2727 46.5199C30.3551 46.5199 28.6591 47.4403 27.875 48.983H27.7557C27.7727 45.5824 28.9659 43.4688 31.2415 43.4688C32.5795 43.4688 33.5426 44.2017 33.8239 45.4205H37.4631C37.1136 42.5483 34.7273 40.3068 31.2415 40.3068C26.929 40.3068 24.1591 43.8011 24.142 49.6648C24.1335 56.0568 27.5256 58.2216 31.1136 58.2386ZM31.0966 55.3409C29.392 55.3409 28.1307 53.9688 28.1307 52.2642C28.1392 50.5682 29.4261 49.1875 31.1222 49.1875C32.8267 49.1875 34.071 50.5256 34.0625 52.2557C34.071 54.0028 32.8011 55.3409 31.0966 55.3409ZM46.7699 58.2386C50.7074 58.2386 53.5369 56.1335 53.5455 53.304C53.5369 51.1222 51.858 49.3409 49.7614 48.9915V48.8722C51.5852 48.4972 52.8892 46.9205 52.8977 45.0028C52.8892 42.3011 50.2983 40.3068 46.7699 40.3068C43.233 40.3068 40.642 42.3011 40.6506 45.0028C40.642 46.9119 41.929 48.4972 43.7869 48.8722V48.9915C41.6562 49.3409 39.9943 51.1222 40.0028 53.304C39.9943 56.1335 42.8324 58.2386 46.7699 58.2386ZM46.7699 55.5284C45.0142 55.5284 43.8381 54.4886 43.8381 53.0142C43.8381 51.5057 45.0739 50.4148 46.7699 50.4148C48.4574 50.4148 49.7017 51.5057 49.7017 53.0142C49.7017 54.4972 48.517 55.5284 46.7699 55.5284ZM46.7699 47.7301C45.2955 47.7301 44.2472 46.767 44.2472 45.3864C44.2472 44.0227 45.2784 43.0852 46.7699 43.0852C48.2528 43.0852 49.2926 44.0312 49.2926 45.3864C49.2926 46.767 48.2358 47.7301 46.7699 47.7301ZM65.6797 54.7273C65.6882 56.8239 67.0263 58.6051 69.5234 58.6051C71.995 58.6051 73.3757 56.8239 73.3672 54.7273V53.8068C73.3757 51.6932 72.0291 49.929 69.5234 49.929C67.0604 49.929 65.6882 51.7102 65.6797 53.8068V54.7273ZM56.7223 44.7386C56.7308 46.8352 58.0689 48.5994 60.5575 48.5994C63.0376 48.5994 64.4183 46.8523 64.4098 44.7386V43.8182C64.4183 41.7045 63.0717 39.9403 60.5575 39.9403C58.12 39.9403 56.7308 41.7045 56.7223 43.8182V44.7386ZM57.5575 58H59.782L71.782 40.5455H69.5575L57.5575 58ZM68.1598 53.8068C68.1683 52.9716 68.5007 52.1108 69.5234 52.1108C70.5973 52.1108 70.8786 52.9716 70.87 53.8068V54.7273C70.8786 55.5625 70.5632 56.4062 69.5234 56.4062C68.4837 56.4062 68.1683 55.5369 68.1598 54.7273V53.8068ZM59.2195 43.8182C59.228 43.0085 59.5433 42.1222 60.5575 42.1222C61.6314 42.1222 61.9212 42.983 61.9126 43.8182V44.7386C61.9212 45.5739 61.5973 46.4176 60.5575 46.4176C59.5518 46.4176 59.228 45.5739 59.2195 44.7386V43.8182Z" fill="#000634"/>
<path d="M100 50C100 77.6142 77.6142 100 50 100C22.3858 100 0 77.6142 0 50C0 22.3858 22.3858 0 50 0C77.6142 0 100 22.3858 100 50ZM5.37752 50C5.37752 74.6443 25.3557 94.6225 50 94.6225C74.6443 94.6225 94.6225 74.6443 94.6225 50C94.6225 25.3557 74.6443 5.37752 50 5.37752C25.3557 5.37752 5.37752 25.3557 5.37752 50Z" fill="#B9C0C9" fill-opacity="0.4"/>
<path d="M50 2.68224C50 1.20088 51.2018 -0.0075046 52.681 0.0719161C61.0566 0.521608 69.2003 3.07256 76.3528 7.50846C84.2665 12.4164 90.6523 19.4369 94.7908 27.7788C98.9293 36.1207 100.656 45.4525 99.7764 54.723C98.8968 63.9934 95.4458 72.834 89.8123 80.2487C84.1787 87.6634 76.5865 93.3575 67.891 96.6895C59.1955 100.022 49.7422 100.859 40.5963 99.1077C31.4504 97.3564 22.9754 93.0858 16.126 86.777C9.93537 81.0751 5.29512 73.9131 2.6171 65.9644C2.14413 64.5606 2.9862 63.0789 4.41337 62.6819C5.84053 62.2848 7.31155 63.1233 7.79357 64.5241C10.1979 71.5111 14.3047 77.8063 19.7603 82.8312C25.8748 88.4631 33.4406 92.2756 41.6052 93.839C49.7699 95.4025 58.2089 94.6548 65.9715 91.6802C73.734 88.7057 80.5117 83.6225 85.5408 77.0033C90.57 70.3841 93.6507 62.492 94.436 54.2162C95.2212 45.9404 93.6797 37.6098 89.9852 30.1629C86.2907 22.716 80.59 16.4488 73.5254 12.0674C67.2221 8.15814 60.0566 5.88877 52.6807 5.44503C51.2021 5.35608 50 4.1636 50 2.68224Z" fill="#41D39F"/>
</svg>
