<svg width="35" height="33" viewBox="0 0 35 33" fill="none" xmlns="http://www.w3.org/2000/svg">
<path d="M17.5 0C18.3439 0 19.1532 0.347677 19.7499 0.966547C20.3466 1.58542 20.6818 2.42479 20.6818 3.3C20.6818 4.521 20.0455 5.5935 19.0909 6.1545V8.25H20.6818C23.6354 8.25 26.4679 9.46687 28.5564 11.6329C30.6449 13.799 31.8182 16.7367 31.8182 19.8H33.4091C33.831 19.8 34.2357 19.9738 34.534 20.2833C34.8324 20.5927 35 21.0124 35 21.45V26.4C35 26.8376 34.8324 27.2573 34.534 27.5667C34.2357 27.8762 33.831 28.05 33.4091 28.05H31.8182V29.7C31.8182 30.5752 31.483 31.4146 30.8862 32.0335C30.2895 32.6523 29.4802 33 28.6364 33H6.36364C5.51977 33 4.71046 32.6523 4.11375 32.0335C3.51704 31.4146 3.18182 30.5752 3.18182 29.7V28.05H1.59091C1.16897 28.05 0.76432 27.8762 0.465966 27.5667C0.167613 27.2573 0 26.8376 0 26.4V21.45C0 21.0124 0.167613 20.5927 0.465966 20.2833C0.76432 19.9738 1.16897 19.8 1.59091 19.8H3.18182C3.18182 16.7367 4.35511 13.799 6.44358 11.6329C8.53206 9.46687 11.3646 8.25 14.3182 8.25H15.9091V6.1545C14.9545 5.5935 14.3182 4.521 14.3182 3.3C14.3182 2.42479 14.6534 1.58542 15.2501 0.966547C15.8468 0.347677 16.6561 0 17.5 0ZM10.3409 18.15C9.28607 18.15 8.27444 18.5846 7.52855 19.3582C6.78267 20.1318 6.36364 21.181 6.36364 22.275C6.36364 23.369 6.78267 24.4182 7.52855 25.1918C8.27444 25.9654 9.28607 26.4 10.3409 26.4C11.3957 26.4 12.4074 25.9654 13.1533 25.1918C13.8991 24.4182 14.3182 23.369 14.3182 22.275C14.3182 21.181 13.8991 20.1318 13.1533 19.3582C12.4074 18.5846 11.3957 18.15 10.3409 18.15ZM24.6591 18.15C23.6043 18.15 22.5926 18.5846 21.8467 19.3582C21.1009 20.1318 20.6818 21.181 20.6818 22.275C20.6818 23.369 21.1009 24.4182 21.8467 25.1918C22.5926 25.9654 23.6043 26.4 24.6591 26.4C25.7139 26.4 26.7256 25.9654 27.4714 25.1918C28.2173 24.4182 28.6364 23.369 28.6364 22.275C28.6364 21.181 28.2173 20.1318 27.4714 19.3582C26.7256 18.5846 25.7139 18.15 24.6591 18.15Z" fill="white"/>
</svg>
