<svg width="162" height="10" viewBox="0 0 162 10" fill="none" xmlns="http://www.w3.org/2000/svg">
<path d="M25.5057 2.18182V8H26.6989V4.19886H26.7472L28.2528 7.97159H29.0653L30.571 4.21307H30.6193V8H31.8125V2.18182H30.2955L28.6932 6.09091H28.625L27.0227 2.18182H25.5057Z" fill="#000634"/>
<path d="M3.66193 3.85511H4.84091C4.82386 2.81818 3.97159 2.10227 2.67614 2.10227C1.40057 2.10227 0.465909 2.80682 0.471591 3.86364C0.46875 4.72159 1.07386 5.21307 2.05682 5.44886L2.69034 5.60795C3.32386 5.76136 3.67614 5.94318 3.67898 6.33523C3.67614 6.76136 3.27273 7.05114 2.64773 7.05114C2.00852 7.05114 1.5483 6.75568 1.50852 6.1733H0.318182C0.349432 7.43182 1.25 8.08239 2.66193 8.08239C4.08239 8.08239 4.91761 7.40341 4.92045 6.33807C4.91761 5.36932 4.1875 4.85511 3.17614 4.62784L2.65341 4.50284C2.14773 4.38636 1.72443 4.19886 1.73295 3.78125C1.73295 3.40625 2.06534 3.13068 2.66761 3.13068C3.25568 3.13068 3.61648 3.39773 3.66193 3.85511Z" fill="#000634"/>
<path d="M52.2841 3.19602H54.0653V8H55.2812V3.19602H57.0625V2.18182H52.2841V3.19602Z" fill="#000634"/>
<path d="M78.8153 8H80.0142L81.1193 4.19602H81.1648L82.2727 8H83.4716L85.1364 2.18182H83.7926L82.8295 6.23295H82.7784L81.7188 2.18182H80.5682L79.5057 6.22443H79.4574L78.4943 2.18182H77.1506L78.8153 8Z" fill="#000634"/>
<path d="M104.284 3.19602H106.065V8H107.281V3.19602H109.062V2.18182H104.284V3.19602Z" fill="#000634"/>
<path d="M131.506 8H132.736V5.59659H135.102V4.58239H132.736V3.19602H135.358V2.18182H131.506V8Z" fill="#000634"/>
<path d="M159.662 3.85511H160.841C160.824 2.81818 159.972 2.10227 158.676 2.10227C157.401 2.10227 156.466 2.80682 156.472 3.86364C156.469 4.72159 157.074 5.21307 158.057 5.44886L158.69 5.60795C159.324 5.76136 159.676 5.94318 159.679 6.33523C159.676 6.76136 159.273 7.05114 158.648 7.05114C158.009 7.05114 157.548 6.75568 157.509 6.1733H156.318C156.349 7.43182 157.25 8.08239 158.662 8.08239C160.082 8.08239 160.918 7.40341 160.92 6.33807C160.918 5.36932 160.188 4.85511 159.176 4.62784L158.653 4.50284C158.148 4.38636 157.724 4.19886 157.733 3.78125C157.733 3.40625 158.065 3.13068 158.668 3.13068C159.256 3.13068 159.616 3.39773 159.662 3.85511Z" fill="#000634"/>
</svg>
