<svg width="17" height="100" viewBox="0 0 17 100" fill="none" xmlns="http://www.w3.org/2000/svg">
<path d="M3.2983 98.7273H3.96875L3.97443 98.071C5.20455 97.9773 5.91761 97.3239 5.92045 96.3381C5.91761 95.3693 5.1875 94.8551 4.17614 94.6278L4.00852 94.5881L4.01989 93.1676C4.39773 93.2557 4.62784 93.4972 4.66193 93.8551H5.84091C5.8267 92.9148 5.125 92.2415 4.03125 92.1222L4.03693 91.4545H3.36648L3.3608 92.1165C2.25 92.2244 1.46591 92.8949 1.47159 93.8636C1.46875 94.7216 2.07386 95.2131 3.05682 95.4489L3.32955 95.517L3.31534 97.0199C2.85227 96.9318 2.53977 96.6477 2.50852 96.1733H1.31818C1.34659 97.321 2.09943 97.9631 3.30398 98.0682L3.2983 98.7273ZM3.9858 97.0199L3.99716 95.6932C4.4375 95.8324 4.67614 96.0114 4.67898 96.3352C4.67614 96.679 4.41477 96.9347 3.9858 97.0199ZM3.33807 94.4148C2.98295 94.2926 2.72727 94.108 2.73295 93.7812C2.73295 93.4773 2.94886 93.2415 3.34943 93.1591L3.33807 94.4148ZM8.99503 98.1278C10.4581 98.1278 11.3416 97.0142 11.3445 95.0966C11.3473 93.1932 10.4524 92.1023 8.99503 92.1023C7.5348 92.1023 6.64844 93.1903 6.6456 95.0966C6.63991 97.0085 7.52912 98.125 8.99503 98.1278ZM8.99503 97.108C8.32741 97.108 7.8956 96.4375 7.89844 95.0966C7.90128 93.7756 8.33026 93.1108 8.99503 93.1108C9.65696 93.1108 10.0888 93.7756 10.0888 95.0966C10.0916 96.4375 9.6598 97.108 8.99503 97.108Z" fill="#000634"/>
<path d="M3.2983 80.7273H3.96875L3.97443 80.071C5.20455 79.9773 5.91761 79.3239 5.92045 78.3381C5.91761 77.3693 5.1875 76.8551 4.17614 76.6278L4.00852 76.5881L4.01989 75.1676C4.39773 75.2557 4.62784 75.4972 4.66193 75.8551H5.84091C5.8267 74.9148 5.125 74.2415 4.03125 74.1222L4.03693 73.4545H3.36648L3.3608 74.1165C2.25 74.2244 1.46591 74.8949 1.47159 75.8636C1.46875 76.7216 2.07386 77.2131 3.05682 77.4489L3.32955 77.517L3.31534 79.0199C2.85227 78.9318 2.53977 78.6477 2.50852 78.1733H1.31818C1.34659 79.321 2.09943 79.9631 3.30398 80.0682L3.2983 80.7273ZM3.9858 79.0199L3.99716 77.6932C4.4375 77.8324 4.67614 78.0114 4.67898 78.3352C4.67614 78.679 4.41477 78.9347 3.9858 79.0199ZM3.33807 76.4148C2.98295 76.2926 2.72727 76.108 2.73295 75.7812C2.73295 75.4773 2.94886 75.2415 3.34943 75.1591L3.33807 76.4148ZM8.83878 80.0795C10.1342 80.0795 11.0149 79.2358 11.0121 78.0597C11.0149 76.946 10.2365 76.1449 9.18821 76.1449C8.67685 76.1449 8.23651 76.358 8.03196 76.6449H7.99787L8.14844 75.1875H10.6911V74.1818H7.13423L6.85866 77.25L7.95241 77.446C8.13139 77.2045 8.47798 77.054 8.82173 77.054C9.40696 77.0568 9.82741 77.4801 9.82741 78.0909C9.82741 78.696 9.41548 79.1136 8.83878 79.1136C8.35014 79.1136 7.95526 78.8068 7.92685 78.3551H6.73366C6.75639 79.3608 7.63423 80.0795 8.83878 80.0795Z" fill="#000634"/>
<path d="M2.2983 62.7273H2.96875L2.97443 62.071C4.20455 61.9773 4.91761 61.3239 4.92045 60.3381C4.91761 59.3693 4.1875 58.8551 3.17614 58.6278L3.00852 58.5881L3.01989 57.1676C3.39773 57.2557 3.62784 57.4972 3.66193 57.8551H4.84091C4.8267 56.9148 4.125 56.2415 3.03125 56.1222L3.03693 55.4545H2.36648L2.3608 56.1165C1.25 56.2244 0.465909 56.8949 0.471591 57.8636C0.46875 58.7216 1.07386 59.2131 2.05682 59.4489L2.32955 59.517L2.31534 61.0199C1.85227 60.9318 1.53977 60.6477 1.50852 60.1733H0.318182C0.346591 61.321 1.09943 61.9631 2.30398 62.0682L2.2983 62.7273ZM2.9858 61.0199L2.99716 59.6932C3.4375 59.8324 3.67614 60.0114 3.67898 60.3352C3.67614 60.679 3.41477 60.9347 2.9858 61.0199ZM2.33807 58.4148C1.98295 58.2926 1.72727 58.108 1.73295 57.7812C1.73295 57.4773 1.94886 57.2415 2.34943 57.1591L2.33807 58.4148ZM8.24503 56.1818H7.08878L5.64844 57.0938V58.1847L6.98082 57.3494H7.01491V62H8.24503V56.1818ZM11.9091 62.1278C13.3722 62.1278 14.2557 61.0142 14.2585 59.0966C14.2614 57.1932 13.3665 56.1023 11.9091 56.1023C10.4489 56.1023 9.5625 57.1903 9.55966 59.0966C9.55398 61.0085 10.4432 62.125 11.9091 62.1278ZM11.9091 61.108C11.2415 61.108 10.8097 60.4375 10.8125 59.0966C10.8153 57.7756 11.2443 57.1108 11.9091 57.1108C12.571 57.1108 13.0028 57.7756 13.0028 59.0966C13.0057 60.4375 12.5739 61.108 11.9091 61.108Z" fill="#000634"/>
<path d="M2.2983 44.7273H2.96875L2.97443 44.071C4.20455 43.9773 4.91761 43.3239 4.92045 42.3381C4.91761 41.3693 4.1875 40.8551 3.17614 40.6278L3.00852 40.5881L3.01989 39.1676C3.39773 39.2557 3.62784 39.4972 3.66193 39.8551H4.84091C4.8267 38.9148 4.125 38.2415 3.03125 38.1222L3.03693 37.4545H2.36648L2.3608 38.1165C1.25 38.2244 0.465909 38.8949 0.471591 39.8636C0.46875 40.7216 1.07386 41.2131 2.05682 41.4489L2.32955 41.517L2.31534 43.0199C1.85227 42.9318 1.53977 42.6477 1.50852 42.1733H0.318182C0.346591 43.321 1.09943 43.9631 2.30398 44.0682L2.2983 44.7273ZM2.9858 43.0199L2.99716 41.6932C3.4375 41.8324 3.67614 42.0114 3.67898 42.3352C3.67614 42.679 3.41477 42.9347 2.9858 43.0199ZM2.33807 40.4148C1.98295 40.2926 1.72727 40.108 1.73295 39.7812C1.73295 39.4773 1.94886 39.2415 2.34943 39.1591L2.33807 40.4148ZM8.24503 38.1818H7.08878L5.64844 39.0938V40.1847L6.98082 39.3494H7.01491V44H8.24503V38.1818ZM11.7528 44.0795C13.0483 44.0795 13.929 43.2358 13.9261 42.0597C13.929 40.946 13.1506 40.1449 12.1023 40.1449C11.5909 40.1449 11.1506 40.358 10.946 40.6449H10.9119L11.0625 39.1875H13.6051V38.1818H10.0483L9.77273 41.25L10.8665 41.446C11.0455 41.2045 11.392 41.054 11.7358 41.054C12.321 41.0568 12.7415 41.4801 12.7415 42.0909C12.7415 42.696 12.3295 43.1136 11.7528 43.1136C11.2642 43.1136 10.8693 42.8068 10.8409 42.3551H9.64773C9.67045 43.3608 10.5483 44.0795 11.7528 44.0795Z" fill="#000634"/>
<path d="M2.2983 26.7273H2.96875L2.97443 26.071C4.20455 25.9773 4.91761 25.3239 4.92045 24.3381C4.91761 23.3693 4.1875 22.8551 3.17614 22.6278L3.00852 22.5881L3.01989 21.1676C3.39773 21.2557 3.62784 21.4972 3.66193 21.8551H4.84091C4.8267 20.9148 4.125 20.2415 3.03125 20.1222L3.03693 19.4545H2.36648L2.3608 20.1165C1.25 20.2244 0.465909 20.8949 0.471591 21.8636C0.46875 22.7216 1.07386 23.2131 2.05682 23.4489L2.32955 23.517L2.31534 25.0199C1.85227 24.9318 1.53977 24.6477 1.50852 24.1733H0.318182C0.346591 25.321 1.09943 25.9631 2.30398 26.0682L2.2983 26.7273ZM2.9858 25.0199L2.99716 23.6932C3.4375 23.8324 3.67614 24.0114 3.67898 24.3352C3.67614 24.679 3.41477 24.9347 2.9858 25.0199ZM2.33807 22.4148C1.98295 22.2926 1.72727 22.108 1.73295 21.7812C1.73295 21.4773 1.94886 21.2415 2.34943 21.1591L2.33807 22.4148ZM5.71378 26H9.86151V24.9943H7.41832V24.9545L8.26776 24.1222C9.46378 23.0312 9.7848 22.4858 9.7848 21.8239C9.7848 20.8153 8.96094 20.1023 7.71378 20.1023C6.49219 20.1023 5.65412 20.8324 5.65696 21.9744H6.82457C6.82173 21.4176 7.17401 21.0767 7.70526 21.0767C8.21662 21.0767 8.5973 21.3949 8.5973 21.9062C8.5973 22.3693 8.31321 22.6875 7.7848 23.196L5.71378 25.1136V26ZM12.8778 26.0795C14.1733 26.0795 15.054 25.2358 15.0511 24.0597C15.054 22.946 14.2756 22.1449 13.2273 22.1449C12.7159 22.1449 12.2756 22.358 12.071 22.6449H12.0369L12.1875 21.1875H14.7301V20.1818H11.1733L10.8977 23.25L11.9915 23.446C12.1705 23.2045 12.517 23.054 12.8608 23.054C13.446 23.0568 13.8665 23.4801 13.8665 24.0909C13.8665 24.696 13.4545 25.1136 12.8778 25.1136C12.3892 25.1136 11.9943 24.8068 11.9659 24.3551H10.7727C10.7955 25.3608 11.6733 26.0795 12.8778 26.0795Z" fill="#000634"/>
<path d="M2.2983 8.72727H2.96875L2.97443 8.07102C4.20455 7.97727 4.91761 7.32386 4.92045 6.33807C4.91761 5.36932 4.1875 4.85511 3.17614 4.62784L3.00852 4.58807L3.01989 3.16761C3.39773 3.25568 3.62784 3.49716 3.66193 3.85511H4.84091C4.8267 2.91477 4.125 2.24148 3.03125 2.12216L3.03693 1.45455H2.36648L2.3608 2.11648C1.25 2.22443 0.465909 2.89489 0.471591 3.86364C0.46875 4.72159 1.07386 5.21307 2.05682 5.44886L2.32955 5.51705L2.31534 7.01989C1.85227 6.93182 1.53977 6.64773 1.50852 6.1733H0.318182C0.346591 7.32102 1.09943 7.96307 2.30398 8.06818L2.2983 8.72727ZM2.9858 7.01989L2.99716 5.69318C3.4375 5.83239 3.67614 6.01136 3.67898 6.33523C3.67614 6.67898 3.41477 6.93466 2.9858 7.01989ZM2.33807 4.41477C1.98295 4.29261 1.72727 4.10795 1.73295 3.78125C1.73295 3.47727 1.94886 3.24148 2.34943 3.15909L2.33807 4.41477ZM7.86435 8.07955C9.17116 8.07955 10.1058 7.3608 10.103 6.36648C10.1058 5.64205 9.6456 5.125 8.79048 5.01705V4.97159C9.44105 4.85511 9.88991 4.39489 9.88707 3.74148C9.88991 2.82386 9.08594 2.10227 7.88139 2.10227C6.68821 2.10227 5.79048 2.80114 5.77344 3.80682H6.95241C6.96662 3.36364 7.37287 3.0767 7.87571 3.0767C8.37287 3.0767 8.70526 3.37784 8.70241 3.81534C8.70526 4.27273 8.31605 4.58239 7.75639 4.58239H7.21378V5.4858H7.75639C8.41548 5.4858 8.82741 5.81534 8.82457 6.28409C8.82741 6.74716 8.42969 7.06534 7.86719 7.06534C7.32457 7.06534 6.91832 6.78125 6.8956 6.35511H5.65696C5.67685 7.37216 6.58594 8.07955 7.86435 8.07955ZM13.2685 8.12784C14.7315 8.12784 15.6151 7.0142 15.6179 5.09659C15.6207 3.19318 14.7259 2.10227 13.2685 2.10227C11.8082 2.10227 10.9219 3.19034 10.919 5.09659C10.9134 7.00852 11.8026 8.125 13.2685 8.12784ZM13.2685 7.10795C12.6009 7.10795 12.169 6.4375 12.1719 5.09659C12.1747 3.77557 12.6037 3.1108 13.2685 3.1108C13.9304 3.1108 14.3622 3.77557 14.3622 5.09659C14.3651 6.4375 13.9332 7.10795 13.2685 7.10795Z" fill="#000634"/>
</svg>
