<svg width="12" height="15" viewBox="0 0 12 15" fill="none" xmlns="http://www.w3.org/2000/svg">
<path d="M12 3.28125V13.5938C12 14.3704 11.3284 15 10.5 15H1.5C0.671562 15 0 14.3704 0 13.5938V3.28125C0 2.50459 0.671562 1.875 1.5 1.875H4C4 0.841113 4.89719 0 6 0C7.10281 0 8 0.841113 8 1.875H10.5C11.3284 1.875 12 2.50459 12 3.28125ZM6 1.17188C5.58578 1.17188 5.25 1.48667 5.25 1.875C5.25 2.26333 5.58578 2.57812 6 2.57812C6.41422 2.57812 6.75 2.26333 6.75 1.875C6.75 1.48667 6.41422 1.17188 6 1.17188ZM9 4.51172V3.92578C9 3.87916 8.98025 3.83445 8.94508 3.80149C8.90992 3.76852 8.86223 3.75 8.8125 3.75H3.1875C3.13777 3.75 3.09008 3.76852 3.05492 3.80149C3.01975 3.83445 3 3.87916 3 3.92578V4.51172C3 4.55834 3.01975 4.60305 3.05492 4.63601C3.09008 4.66898 3.13777 4.6875 3.1875 4.6875H8.8125C8.86223 4.6875 8.90992 4.66898 8.94508 4.63601C8.98025 4.60305 9 4.55834 9 4.51172Z" fill="white"/>
</svg>
