<svg width="16" height="16" viewBox="0 0 16 16" fill="none" xmlns="http://www.w3.org/2000/svg">
<path d="M16 3.5122C16 3.70336 15.9242 3.88787 15.7872 4.03073C15.6501 4.17359 15.4613 4.26485 15.2564 4.28722L15.1579 4.29268H14.4463L13.4097 14.0644C13.3532 14.5946 13.086 15.0864 12.66 15.4442C12.234 15.8019 11.6797 16.0001 11.1048 16H4.89516C4.32029 16.0001 3.76596 15.8019 3.33996 15.4442C2.91396 15.0864 2.64676 14.5946 2.59032 14.0644L1.55368 4.29268H0.842105C0.618765 4.29268 0.404572 4.21045 0.246647 4.06408C0.0887215 3.91771 0 3.71919 0 3.5122C0 3.3052 0.0887215 3.10668 0.246647 2.96031C0.404572 2.81394 0.618765 2.73171 0.842105 2.73171H5.05263C5.05263 2.37297 5.12887 2.01775 5.27699 1.68633C5.42511 1.3549 5.64221 1.05376 5.9159 0.800099C6.18958 0.546436 6.5145 0.34522 6.87209 0.207939C7.22968 0.0706577 7.61295 0 8 0C8.38705 0 8.77032 0.0706577 9.12791 0.207939C9.4855 0.34522 9.81042 0.546436 10.0841 0.800099C10.3578 1.05376 10.5749 1.3549 10.723 1.68633C10.8711 2.01775 10.9474 2.37297 10.9474 2.73171H15.1579C15.3812 2.73171 15.5954 2.81394 15.7534 2.96031C15.9113 3.10668 16 3.3052 16 3.5122ZM9.89474 6.04878C9.74212 6.04879 9.59466 6.10001 9.47964 6.19299C9.36462 6.28596 9.28981 6.4144 9.26905 6.55454L9.26316 6.63415V12.0976L9.26905 12.1772C9.28985 12.3173 9.36468 12.4457 9.47969 12.5386C9.59471 12.6315 9.74214 12.6827 9.89474 12.6827C10.0473 12.6827 10.1948 12.6315 10.3098 12.5386C10.4248 12.4457 10.4996 12.3173 10.5204 12.1772L10.5263 12.0976V6.63415L10.5204 6.55454C10.4997 6.4144 10.4249 6.28596 10.3098 6.19299C10.1948 6.10001 10.0474 6.04879 9.89474 6.04878ZM6.10526 6.04878C5.95264 6.04879 5.80519 6.10001 5.69016 6.19299C5.57514 6.28596 5.50034 6.4144 5.47958 6.55454L5.47368 6.63415V12.0976L5.47958 12.1772C5.50038 12.3173 5.5752 12.4457 5.69022 12.5386C5.80524 12.6315 5.95267 12.6827 6.10526 12.6827C6.25786 12.6827 6.40529 12.6315 6.52031 12.5386C6.63532 12.4457 6.71015 12.3173 6.73095 12.1772L6.73684 12.0976V6.63415L6.73095 6.55454C6.71019 6.4144 6.63538 6.28596 6.52036 6.19299C6.40534 6.10001 6.25788 6.04879 6.10526 6.04878ZM8 1.56098C7.66499 1.56098 7.3437 1.68432 7.10681 1.90388C6.86992 2.12343 6.73684 2.42121 6.73684 2.73171H9.26316C9.26316 2.42121 9.13008 2.12343 8.89319 1.90388C8.6563 1.68432 8.33501 1.56098 8 1.56098Z" fill="white"/>
</svg>
