<svg width="18" height="18" viewBox="0 0 18 18" fill="none" xmlns="http://www.w3.org/2000/svg">
<path d="M15.25 0C15.9793 0 16.6788 0.289731 17.1945 0.805456C17.7103 1.32118 18 2.02065 18 2.75V15.25C18 15.6111 17.9289 15.9687 17.7907 16.3024C17.6525 16.636 17.4499 16.9392 17.1945 17.1945C16.9392 17.4499 16.636 17.6525 16.3024 17.7907C15.9687 17.9289 15.6111 18 15.25 18H2.75C2.38886 18 2.03127 17.9289 1.69762 17.7907C1.36398 17.6525 1.06082 17.4499 0.805456 17.1945C0.550095 16.9392 0.347532 16.636 0.209331 16.3024C0.0711308 15.9687 0 15.6111 0 15.25V2.75C0 2.02065 0.289731 1.32118 0.805456 0.805456C1.32118 0.289731 2.02065 0 2.75 0H15.25ZM4.75 6.003C4.65169 6.00274 4.55429 6.02186 4.46337 6.05927C4.37245 6.09668 4.2898 6.15164 4.22014 6.22102C4.15049 6.2904 4.09519 6.37283 4.05742 6.4636C4.01964 6.55436 4.00013 6.65169 4 6.75V13.257C4 13.669 4.336 14.003 4.75 14.003C5.164 14.003 5.5 13.669 5.5 13.257V6.75C5.49987 6.65169 5.48036 6.55436 5.44258 6.4636C5.40481 6.37283 5.34951 6.2904 5.27986 6.22102C5.2102 6.15164 5.12755 6.09668 5.03663 6.05927C4.94571 6.02186 4.84831 6.00274 4.75 6.003ZM13.25 4.003C13.1528 4.00168 13.0563 4.01951 12.966 4.05548C12.8758 4.09146 12.7934 4.14486 12.7238 4.21265C12.6541 4.28044 12.5985 4.36128 12.5601 4.45056C12.5217 4.53985 12.5013 4.63582 12.5 4.733V13.274C12.5 13.677 12.836 14.004 13.25 14.004C13.3472 14.0053 13.4437 13.9875 13.534 13.9515C13.6242 13.9155 13.7066 13.8621 13.7762 13.7943C13.8459 13.7266 13.9015 13.6457 13.9399 13.5564C13.9783 13.4672 13.9987 13.3712 14 13.274V4.733C13.9987 4.63582 13.9783 4.53985 13.9399 4.45056C13.9015 4.36128 13.8459 4.28044 13.7762 4.21265C13.7066 4.14486 13.6242 4.09146 13.534 4.05548C13.4437 4.01951 13.3472 4.00168 13.25 4.003ZM8.975 9C8.78157 9.00132 8.59656 9.07937 8.46063 9.21699C8.32469 9.35461 8.24894 9.54056 8.25 9.734L8.285 13.281C8.2863 13.3769 8.30648 13.4715 8.34438 13.5596C8.38227 13.6477 8.43715 13.7274 8.50586 13.7943C8.57458 13.8611 8.6558 13.9138 8.74487 13.9493C8.83394 13.9847 8.92913 14.0023 9.025 14.001C9.21843 13.9997 9.40344 13.9216 9.53937 13.784C9.67531 13.6464 9.75106 13.4604 9.75 13.267L9.715 9.719C9.7121 9.52556 9.63254 9.34118 9.49379 9.20637C9.35504 9.07155 9.16844 8.99733 8.975 9Z" fill="white" fill-opacity="0.5"/>
</svg>
