<svg width="1032" height="53" viewBox="0 0 1032 53" fill="none" xmlns="http://www.w3.org/2000/svg">
<rect width="1032" height="53" fill="white"/>
<path d="M37.9815 31L38.7017 28.848H41.983L42.7074 31H44.3949L41.3182 22.2727H39.3665L36.294 31H37.9815ZM39.1278 27.5781L40.3082 24.0625H40.3764L41.5568 27.5781H39.1278ZM52.6044 25.2173C52.3359 23.2784 50.8445 22.1534 48.9098 22.1534C46.63 22.1534 44.9126 23.8153 44.9126 26.6364C44.9126 29.4531 46.6087 31.1193 48.9098 31.1193C50.9851 31.1193 52.3615 29.777 52.6044 28.1108L51.0107 28.1023C50.8104 29.125 49.9751 29.7003 48.9311 29.7003C47.5163 29.7003 46.5021 28.6392 46.5021 26.6364C46.5021 24.6676 47.5078 23.5724 48.9354 23.5724C49.9964 23.5724 50.8274 24.1733 51.0107 25.2173H52.6044ZM53.6687 23.598H56.3661V31H57.9343V23.598H60.6317V22.2727H53.6687V23.598ZM63.555 22.2727H61.9741V31H63.555V22.2727ZM66.4347 22.2727H64.7003L67.7727 31H69.7244L72.8011 22.2727H71.0625L68.7955 29.142H68.706L66.4347 22.2727ZM73.9506 31H79.6609V29.6747H75.5316V27.2926H79.3327V25.9673H75.5316V23.598H79.6268V22.2727H73.9506V31Z" fill="#B9C0C9"/>
<path d="M145.861 31H147.442V27.2926H151.068V25.9673H147.442V23.598H151.452V22.2727H145.861V31ZM154.473 22.2727H152.892V31H154.473V22.2727ZM156.185 31H157.766V27.804H159.377L161.09 31H162.854L160.966 27.5398C161.993 27.1264 162.534 26.2486 162.534 25.0639C162.534 23.3977 161.461 22.2727 159.458 22.2727H156.185V31ZM157.766 26.4915V23.5938H159.215C160.395 23.5938 160.924 24.1349 160.924 25.0639C160.924 25.9929 160.395 26.4915 159.223 26.4915H157.766ZM163.99 31H169.7V29.6747H165.571V27.2926H169.372V25.9673H165.571V23.598H169.666V22.2727H163.99V31ZM181.427 22.2727H179.855V28.2216H179.778L175.67 22.2727H174.255V31H175.836V25.0554H175.909L180.021 31H181.427V22.2727ZM184.271 31L184.991 28.848H188.272L188.996 31H190.684L187.607 22.2727H185.656L182.583 31H184.271ZM185.417 27.5781L186.597 24.0625H186.665L187.846 27.5781H185.417ZM191.833 22.2727V31H193.35V24.9915H193.431L195.843 30.9744H196.977L199.389 25.0043H199.47V31H200.987V22.2727H199.052L196.461 28.5966H196.359L193.768 22.2727H191.833ZM202.708 31H208.419V29.6747H204.289V27.2926H208.091V25.9673H204.289V23.598H208.385V22.2727H202.708V31Z" fill="#B9C0C9"/>
<path d="M459.861 31H461.442V27.804H463.053L464.766 31H466.53L464.642 27.5398C465.669 27.1264 466.21 26.2486 466.21 25.0639C466.21 23.3977 465.136 22.2727 463.134 22.2727H459.861V31ZM461.442 26.4915V23.5938H462.891C464.071 23.5938 464.599 24.1349 464.599 25.0639C464.599 25.9929 464.071 26.4915 462.899 26.4915H461.442ZM467.665 31H473.376V29.6747H469.246V27.2926H473.048V25.9673H469.246V23.598H473.342V22.2727H467.665V31ZM479.697 24.6719H481.219C481.189 23.1974 479.932 22.1534 478.074 22.1534C476.241 22.1534 474.865 23.1847 474.869 24.7273C474.869 25.9801 475.76 26.7003 477.196 27.071L478.189 27.3267C479.131 27.5653 479.753 27.8594 479.757 28.5369C479.753 29.2827 479.045 29.7812 478.014 29.7812C477.026 29.7812 476.259 29.3381 476.195 28.4219H474.639C474.703 30.1562 475.994 31.1321 478.027 31.1321C480.119 31.1321 481.334 30.0881 481.338 28.5497C481.334 27.0369 480.085 26.3466 478.773 26.0355L477.955 25.831C477.239 25.6605 476.463 25.358 476.472 24.6293C476.476 23.973 477.064 23.4915 478.053 23.4915C478.994 23.4915 479.616 23.9304 479.697 24.6719ZM482.748 31H484.328V28.0511H485.999C488.015 28.0511 489.097 26.8409 489.097 25.1619C489.097 23.4957 488.027 22.2727 486.02 22.2727H482.748V31ZM484.328 26.7514V23.5938H485.777C486.962 23.5938 487.486 24.233 487.486 25.1619C487.486 26.0909 486.962 26.7514 485.786 26.7514H484.328ZM498.268 26.6364C498.268 23.8153 496.547 22.1534 494.259 22.1534C491.966 22.1534 490.249 23.8153 490.249 26.6364C490.249 29.4531 491.966 31.1193 494.259 31.1193C496.547 31.1193 498.268 29.4574 498.268 26.6364ZM496.679 26.6364C496.679 28.6222 495.682 29.7003 494.259 29.7003C492.839 29.7003 491.838 28.6222 491.838 26.6364C491.838 24.6506 492.839 23.5724 494.259 23.5724C495.682 23.5724 496.679 24.6506 496.679 26.6364ZM506.935 22.2727H505.363V28.2216H505.286L501.178 22.2727H499.763V31H501.344V25.0554H501.417L505.529 31H506.935V22.2727ZM513.401 24.6719H514.922C514.892 23.1974 513.635 22.1534 511.777 22.1534C509.945 22.1534 508.568 23.1847 508.572 24.7273C508.572 25.9801 509.463 26.7003 510.899 27.071L511.892 27.3267C512.834 27.5653 513.456 27.8594 513.46 28.5369C513.456 29.2827 512.749 29.7812 511.717 29.7812C510.729 29.7812 509.962 29.3381 509.898 28.4219H508.342C508.406 30.1562 509.697 31.1321 511.73 31.1321C513.822 31.1321 515.037 30.0881 515.041 28.5497C515.037 27.0369 513.788 26.3466 512.476 26.0355L511.658 25.831C510.942 25.6605 510.166 25.358 510.175 24.6293C510.179 23.973 510.767 23.4915 511.756 23.4915C512.697 23.4915 513.32 23.9304 513.401 24.6719ZM516.451 31H522.161V29.6747H518.032V27.2926H521.833V25.9673H518.032V23.598H522.127V22.2727H516.451V31ZM528.483 24.6719H530.004C529.974 23.1974 528.717 22.1534 526.859 22.1534C525.027 22.1534 523.65 23.1847 523.654 24.7273C523.654 25.9801 524.545 26.7003 525.981 27.071L526.974 27.3267C527.916 27.5653 528.538 27.8594 528.542 28.5369C528.538 29.2827 527.831 29.7812 526.799 29.7812C525.811 29.7812 525.044 29.3381 524.98 28.4219H523.424C523.488 30.1562 524.779 31.1321 526.812 31.1321C528.904 31.1321 530.119 30.0881 530.123 28.5497C530.119 27.0369 528.87 26.3466 527.558 26.0355L526.74 25.831C526.024 25.6605 525.248 25.358 525.257 24.6293C525.261 23.973 525.849 23.4915 526.838 23.4915C527.779 23.4915 528.402 23.9304 528.483 24.6719Z" fill="#B9C0C9"/>
<path d="M587.861 31H589.442V28.0511H591.112C593.128 28.0511 594.21 26.8409 594.21 25.1619C594.21 23.4957 593.141 22.2727 591.134 22.2727H587.861V31ZM589.442 26.7514V23.5938H590.891C592.075 23.5938 592.599 24.233 592.599 25.1619C592.599 26.0909 592.075 26.7514 590.899 26.7514H589.442ZM595.583 31H597.164V27.804H598.775L600.488 31H602.252L600.365 27.5398C601.392 27.1264 601.933 26.2486 601.933 25.0639C601.933 23.3977 600.859 22.2727 598.856 22.2727H595.583V31ZM597.164 26.4915V23.5938H598.613C599.794 23.5938 600.322 24.1349 600.322 25.0639C600.322 25.9929 599.794 26.4915 598.622 26.4915H597.164ZM611.186 26.6364C611.186 23.8153 609.465 22.1534 607.176 22.1534C604.884 22.1534 603.167 23.8153 603.167 26.6364C603.167 29.4531 604.884 31.1193 607.176 31.1193C609.465 31.1193 611.186 29.4574 611.186 26.6364ZM609.597 26.6364C609.597 28.6222 608.6 29.7003 607.176 29.7003C605.757 29.7003 604.756 28.6222 604.756 26.6364C604.756 24.6506 605.757 23.5724 607.176 23.5724C608.6 23.5724 609.597 24.6506 609.597 26.6364ZM618.528 25.0597H620.138C619.87 23.3466 618.387 22.1534 616.457 22.1534C614.173 22.1534 612.46 23.8324 612.46 26.6449C612.46 29.4062 614.096 31.1193 616.504 31.1193C618.664 31.1193 620.211 29.7301 620.211 27.4801V26.4318H616.67V27.6676H618.681C618.656 28.9119 617.825 29.7003 616.512 29.7003C615.05 29.7003 614.049 28.6051 614.049 26.6278C614.049 24.6634 615.067 23.5724 616.478 23.5724C617.531 23.5724 618.246 24.1349 618.528 25.0597ZM621.74 31H623.321V27.804H624.931L626.645 31H628.409L626.521 27.5398C627.548 27.1264 628.089 26.2486 628.089 25.0639C628.089 23.3977 627.015 22.2727 625.012 22.2727H621.74V31ZM623.321 26.4915V23.5938H624.77C625.95 23.5938 626.478 24.1349 626.478 25.0639C626.478 25.9929 625.95 26.4915 624.778 26.4915H623.321ZM629.544 31H635.255V29.6747H631.125V27.2926H634.926V25.9673H631.125V23.598H635.221V22.2727H629.544V31ZM641.576 24.6719H643.098C643.068 23.1974 641.811 22.1534 639.953 22.1534C638.12 22.1534 636.744 23.1847 636.748 24.7273C636.748 25.9801 637.639 26.7003 639.075 27.071L640.068 27.3267C641.01 27.5653 641.632 27.8594 641.636 28.5369C641.632 29.2827 640.924 29.7812 639.893 29.7812C638.904 29.7812 638.137 29.3381 638.074 28.4219H636.518C636.582 30.1562 637.873 31.1321 639.906 31.1321C641.998 31.1321 643.213 30.0881 643.217 28.5497C643.213 27.0369 641.964 26.3466 640.652 26.0355L639.833 25.831C639.118 25.6605 638.342 25.358 638.35 24.6293C638.355 23.973 638.943 23.4915 639.931 23.4915C640.873 23.4915 641.495 23.9304 641.576 24.6719ZM649.369 24.6719H650.891C650.861 23.1974 649.604 22.1534 647.746 22.1534C645.913 22.1534 644.537 23.1847 644.541 24.7273C644.541 25.9801 645.432 26.7003 646.868 27.071L647.861 27.3267C648.803 27.5653 649.425 27.8594 649.429 28.5369C649.425 29.2827 648.717 29.7812 647.686 29.7812C646.697 29.7812 645.93 29.3381 645.866 28.4219H644.311C644.375 30.1562 645.666 31.1321 647.699 31.1321C649.791 31.1321 651.006 30.0881 651.01 28.5497C651.006 27.0369 649.757 26.3466 648.445 26.0355L647.626 25.831C646.911 25.6605 646.135 25.358 646.143 24.6293C646.148 23.973 646.736 23.4915 647.724 23.4915C648.666 23.4915 649.288 23.9304 649.369 24.6719Z" fill="#B9C0C9"/>
<path d="M714.707 25.0597H716.318C716.05 23.3466 714.567 22.1534 712.636 22.1534C710.352 22.1534 708.639 23.8324 708.639 26.6449C708.639 29.4062 710.276 31.1193 712.683 31.1193C714.844 31.1193 716.391 29.7301 716.391 27.4801V26.4318H712.849V27.6676H714.861C714.835 28.9119 714.004 29.7003 712.692 29.7003C711.23 29.7003 710.229 28.6051 710.229 26.6278C710.229 24.6634 711.247 23.5724 712.658 23.5724C713.71 23.5724 714.426 24.1349 714.707 25.0597ZM725.718 26.6364C725.718 23.8153 723.996 22.1534 721.708 22.1534C719.415 22.1534 717.698 23.8153 717.698 26.6364C717.698 29.4531 719.415 31.1193 721.708 31.1193C723.996 31.1193 725.718 29.4574 725.718 26.6364ZM724.128 26.6364C724.128 28.6222 723.131 29.7003 721.708 29.7003C720.289 29.7003 719.287 28.6222 719.287 26.6364C719.287 24.6506 720.289 23.5724 721.708 23.5724C723.131 23.5724 724.128 24.6506 724.128 26.6364ZM727.864 31L728.585 28.848H731.866L732.59 31H734.278L731.201 22.2727H729.249L726.177 31H727.864ZM729.011 27.5781L730.191 24.0625H730.259L731.44 27.5781H729.011ZM735.427 31H740.852V29.6747H737.008V22.2727H735.427V31Z" fill="#B9C0C9"/>
<path d="M801.818 31C804.477 31 806.054 29.3551 806.054 26.6278C806.054 23.9091 804.477 22.2727 801.878 22.2727H798.861V31H801.818ZM800.442 29.6321V23.6406H801.788C803.561 23.6406 804.486 24.6293 804.486 26.6278C804.486 28.6349 803.561 29.6321 801.741 29.6321H800.442ZM807.556 31H813.266V29.6747H809.137V27.2926H812.938V25.9673H809.137V23.598H813.232V22.2727H807.556V31ZM815.966 31L816.686 28.848H819.967L820.692 31H822.379L819.303 22.2727H817.351L814.278 31H815.966ZM817.112 27.5781L818.293 24.0625H818.361L819.541 27.5781H817.112ZM826.486 31C829.145 31 830.722 29.3551 830.722 26.6278C830.722 23.9091 829.145 22.2727 826.546 22.2727H823.529V31H826.486ZM825.11 29.6321V23.6406H826.456C828.229 23.6406 829.154 24.6293 829.154 26.6278C829.154 28.6349 828.229 29.6321 826.409 29.6321H825.11ZM832.224 31H837.649V29.6747H833.805V22.2727H832.224V31ZM840.602 22.2727H839.021V31H840.602V22.2727ZM849.486 22.2727H847.913V28.2216H847.837L843.729 22.2727H842.314V31H843.895V25.0554H843.967L848.08 31H849.486V22.2727ZM851.208 31H856.919V29.6747H852.789V27.2926H856.591V25.9673H852.789V23.598H856.885V22.2727H851.208V31Z" fill="#B9C0C9"/>
<path d="M914.861 31H920.286V29.6747H916.442V22.2727H914.861V31ZM923.107 31L923.827 28.848H927.108L927.832 31H929.52L926.443 22.2727H924.491L921.419 31H923.107ZM924.253 27.5781L925.433 24.0625H925.501L926.682 27.5781H924.253ZM935.272 24.6719H936.793C936.763 23.1974 935.506 22.1534 933.648 22.1534C931.816 22.1534 930.439 23.1847 930.444 24.7273C930.444 25.9801 931.334 26.7003 932.77 27.071L933.763 27.3267C934.705 27.5653 935.327 27.8594 935.331 28.5369C935.327 29.2827 934.62 29.7812 933.588 29.7812C932.6 29.7812 931.833 29.3381 931.769 28.4219H930.213C930.277 30.1562 931.569 31.1321 933.601 31.1321C935.694 31.1321 936.908 30.0881 936.912 28.5497C936.908 27.0369 935.659 26.3466 934.347 26.0355L933.529 25.831C932.813 25.6605 932.037 25.358 932.046 24.6293C932.05 23.973 932.638 23.4915 933.627 23.4915C934.569 23.4915 935.191 23.9304 935.272 24.6719ZM937.938 23.598H940.636V31H942.204V23.598H944.901V22.2727H937.938V23.598ZM949.22 31H950.801V27.804H952.412L954.125 31H955.889L954.001 27.5398C955.028 27.1264 955.57 26.2486 955.57 25.0639C955.57 23.3977 954.496 22.2727 952.493 22.2727H949.22V31ZM950.801 26.4915V23.5938H952.25C953.43 23.5938 953.959 24.1349 953.959 25.0639C953.959 25.9929 953.43 26.4915 952.259 26.4915H950.801ZM957.025 31H962.735V29.6747H958.606V27.2926H962.407V25.9673H958.606V23.598H962.701V22.2727H957.025V31ZM969.057 24.6719H970.578C970.548 23.1974 969.291 22.1534 967.433 22.1534C965.601 22.1534 964.224 23.1847 964.229 24.7273C964.229 25.9801 965.119 26.7003 966.555 27.071L967.548 27.3267C968.49 27.5653 969.112 27.8594 969.116 28.5369C969.112 29.2827 968.405 29.7812 967.374 29.7812C966.385 29.7812 965.618 29.3381 965.554 28.4219H963.999C964.062 30.1562 965.354 31.1321 967.386 31.1321C969.479 31.1321 970.693 30.0881 970.697 28.5497C970.693 27.0369 969.445 26.3466 968.132 26.0355L967.314 25.831C966.598 25.6605 965.822 25.358 965.831 24.6293C965.835 23.973 966.423 23.4915 967.412 23.4915C968.354 23.4915 968.976 23.9304 969.057 24.6719ZM972.107 31H973.688V28.0511H975.358C977.374 28.0511 978.456 26.8409 978.456 25.1619C978.456 23.4957 977.387 22.2727 975.38 22.2727H972.107V31ZM973.688 26.7514V23.5938H975.137C976.321 23.5938 976.846 24.233 976.846 25.1619C976.846 26.0909 976.321 26.7514 975.145 26.7514H973.688ZM987.628 26.6364C987.628 23.8153 985.906 22.1534 983.618 22.1534C981.325 22.1534 979.608 23.8153 979.608 26.6364C979.608 29.4531 981.325 31.1193 983.618 31.1193C985.906 31.1193 987.628 29.4574 987.628 26.6364ZM986.038 26.6364C986.038 28.6222 985.041 29.7003 983.618 29.7003C982.199 29.7003 981.197 28.6222 981.197 26.6364C981.197 24.6506 982.199 23.5724 983.618 23.5724C985.041 23.5724 986.038 24.6506 986.038 26.6364ZM996.294 22.2727H994.722V28.2216H994.645L990.537 22.2727H989.123V31H990.703V25.0554H990.776L994.888 31H996.294V22.2727ZM1002.76 24.6719H1004.28C1004.25 23.1974 1002.99 22.1534 1001.14 22.1534C999.304 22.1534 997.928 23.1847 997.932 24.7273C997.932 25.9801 998.822 26.7003 1000.26 27.071L1001.25 27.3267C1002.19 27.5653 1002.82 27.8594 1002.82 28.5369C1002.82 29.2827 1002.11 29.7812 1001.08 29.7812C1000.09 29.7812 999.321 29.3381 999.257 28.4219H997.702C997.766 30.1562 999.057 31.1321 1001.09 31.1321C1003.18 31.1321 1004.4 30.0881 1004.4 28.5497C1004.4 27.0369 1003.15 26.3466 1001.84 26.0355L1001.02 25.831C1000.3 25.6605 999.526 25.358 999.534 24.6293C999.538 23.973 1000.13 23.4915 1001.12 23.4915C1002.06 23.4915 1002.68 23.9304 1002.76 24.6719ZM1005.81 31H1011.52V29.6747H1007.39V27.2926H1011.19V25.9673H1007.39V23.598H1011.49V22.2727H1005.81V31Z" fill="#B9C0C9"/>
</svg>
