<svg width="14" height="18" viewBox="0 0 14 18" fill="none" xmlns="http://www.w3.org/2000/svg">
<path fill-rule="evenodd" clip-rule="evenodd" d="M8.30045 0.0453452C8.50345 0.109187 8.6808 0.236126 8.80669 0.407701C8.93258 0.579275 9.00046 0.786538 9.00045 0.999345V5.99935H13.0004C13.1834 5.99926 13.3628 6.04936 13.5192 6.14417C13.6757 6.23898 13.8031 6.37489 13.8876 6.53709C13.9722 6.69929 14.0106 6.88158 13.9988 7.06411C13.9869 7.24665 13.9253 7.42243 13.8204 7.57235L6.82044 17.5723C6.69862 17.7469 6.52428 17.878 6.32278 17.9466C6.12129 18.0152 5.90317 18.0177 5.70014 17.9538C5.49711 17.8899 5.31978 17.7629 5.19394 17.5912C5.06809 17.4195 5.00031 17.2122 5.00044 16.9993V11.9993H1.00045C0.817527 11.9994 0.63809 11.9493 0.481663 11.8545C0.325235 11.7597 0.19781 11.6238 0.113255 11.4616C0.0286992 11.2994 -0.00974701 11.1171 0.00209983 10.9346C0.0139467 10.752 0.0756328 10.5763 0.180445 10.4263L7.18045 0.426345C7.30246 0.252132 7.47683 0.121358 7.67825 0.0530213C7.87966 -0.015315 8.09761 -0.0176536 8.30045 0.0463452V0.0453452Z" fill="white"/>
</svg>
