<svg width="23" height="20" viewBox="0 0 23 20" fill="none" xmlns="http://www.w3.org/2000/svg">
<path d="M4.14083 10.3521V4.83096H2.07041C1.52131 4.83096 0.994688 5.0491 0.60641 5.43737C0.218132 5.82565 0 6.35227 0 6.90138V19.3239C0.00102713 19.452 0.0377278 19.5774 0.105989 19.6859C0.17425 19.7944 0.271374 19.8817 0.386477 19.9381C0.497368 19.9885 0.619631 20.0087 0.740846 19.9966C0.86206 19.9844 0.977907 19.9405 1.07662 19.8691L4.63083 17.2534H13.9063C14.1678 17.2612 14.4282 17.2151 14.6713 17.1181C14.9143 17.0212 15.1349 16.8753 15.3193 16.6896C15.5036 16.5039 15.6479 16.2824 15.7432 16.0387C15.8385 15.7949 15.8827 15.5343 15.8732 15.2727V14.4929H8.28166C7.18344 14.4929 6.1302 14.0566 5.35365 13.2801C4.57709 12.5035 4.14083 11.4503 4.14083 10.3521Z" fill="#000634"/>
<path d="M20.0139 0H8.2816C7.73249 0 7.20587 0.218132 6.81759 0.60641C6.42931 0.994688 6.21118 1.52131 6.21118 2.07041V10.3521C6.21118 10.9012 6.42931 11.4278 6.81759 11.8161C7.20587 12.2044 7.73249 12.4225 8.2816 12.4225H17.633L20.9318 14.9829C21.0299 15.0554 21.1454 15.1006 21.2667 15.114C21.3879 15.1273 21.5105 15.1083 21.622 15.0588C21.7394 15.0029 21.8386 14.9149 21.9082 14.805C21.9778 14.6951 22.015 14.5678 22.0153 14.4377V2.07041C22.0156 1.53306 21.807 1.01663 21.4335 0.63028C21.0601 0.243926 20.551 0.0179118 20.0139 0Z" fill="#000634"/>
</svg>
