<svg width="4" height="15" viewBox="0 0 4 15" fill="none" xmlns="http://www.w3.org/2000/svg">
<path d="M2 11.1614C2.53043 11.1614 3.03914 11.3519 3.41421 11.6911C3.78929 12.0302 4 12.4902 4 12.9698C4 13.4494 3.78929 13.9094 3.41421 14.2485C3.03914 14.5877 2.53043 14.7782 2 14.7782C1.46957 14.7782 0.96086 14.5877 0.585787 14.2485C0.210714 13.9094 0 13.4494 0 12.9698C0 12.4902 0.210714 12.0302 0.585787 11.6911C0.96086 11.3519 1.46957 11.1614 2 11.1614ZM2 5.73622C2.53043 5.73622 3.03914 5.92675 3.41421 6.26589C3.78929 6.60503 4 7.065 4 7.54462C4 8.02423 3.78929 8.48421 3.41421 8.82335C3.03914 9.16249 2.53043 9.35301 2 9.35301C1.46957 9.35301 0.96086 9.16249 0.585787 8.82335C0.210714 8.48421 0 8.02423 0 7.54462C0 7.065 0.210714 6.60503 0.585787 6.26589C0.96086 5.92675 1.46957 5.73622 2 5.73622ZM2 0.311035C2.53043 0.311035 3.03914 0.501562 3.41421 0.840702C3.78929 1.17984 4 1.63981 4 2.11943C4 2.59905 3.78929 3.05902 3.41421 3.39816C3.03914 3.7373 2.53043 3.92783 2 3.92783C1.46957 3.92783 0.96086 3.7373 0.585787 3.39816C0.210714 3.05902 0 2.59905 0 2.11943C0 1.63981 0.210714 1.17984 0.585787 0.840702C0.96086 0.501562 1.46957 0.311035 2 0.311035Z" fill="white" fill-opacity="0.5"/>
</svg>
