<svg width="18" height="18" viewBox="0 0 18 18" fill="none" xmlns="http://www.w3.org/2000/svg">
<path d="M8.17911 8.17875C7.72548 8.63238 7.72548 9.36762 8.17911 9.82089C8.63238 10.2745 9.36798 10.2745 9.82125 9.82089C10.2749 9.36726 10.2749 8.63202 9.82125 8.17875C9.36762 7.72548 8.63238 7.72548 8.17911 8.17875ZM9 0C4.02931 0 0 4.02931 0 9C0 13.9707 4.02931 18 9 18C13.9707 18 18 13.9707 18 9C18 4.02931 13.9707 0 9 0ZM13.5777 5.37278L11.1836 10.6113C11.0678 10.8646 10.8646 11.0678 10.6113 11.1836L5.37315 13.5777C4.76891 13.8538 4.14617 13.2311 4.42234 12.6269L6.81677 7.38835C6.93257 7.13501 7.13573 6.93185 7.38907 6.81605L12.6272 4.42198C13.2315 4.14617 13.8538 4.76855 13.5777 5.37278Z" fill="white" fill-opacity="0.5"/>
</svg>
