<svg width="185" height="29" viewBox="0 0 185 29" fill="none" xmlns="http://www.w3.org/2000/svg">
<path d="M0 5C0 2.23858 2.23858 0 5 0H73V29H5C2.23857 29 0 26.7614 0 24V5Z" fill="#000634"/>
<rect x="0.5" y="0.5" width="184" height="28" rx="4.5" stroke="#000634"/>
<path d="M101.153 18C103.369 18 104.651 16.6257 104.651 14.353C104.651 12.0909 103.369 10.7273 101.228 10.7273H98.799V18H101.153ZM99.8963 17.0412V11.6861H101.161C102.751 11.6861 103.572 12.6378 103.572 14.353C103.572 16.0753 102.751 17.0412 101.093 17.0412H99.8963ZM107.518 18.1207C108.42 18.1207 108.928 17.6626 109.13 17.2543H109.173V18H110.21V14.3778C110.21 12.7905 108.96 12.4744 108.093 12.4744C107.106 12.4744 106.197 12.8722 105.842 13.8665L106.84 14.0938C106.996 13.7067 107.394 13.3338 108.107 13.3338C108.793 13.3338 109.144 13.6925 109.144 14.3104V14.3352C109.144 14.7223 108.747 14.7152 107.767 14.8288C106.733 14.9496 105.675 15.2195 105.675 16.4588C105.675 17.5312 106.481 18.1207 107.518 18.1207ZM107.749 17.2685C107.149 17.2685 106.715 16.9986 106.715 16.473C106.715 15.9048 107.22 15.7024 107.834 15.6207C108.178 15.5746 108.995 15.4822 109.148 15.3295V16.0327C109.148 16.679 108.633 17.2685 107.749 17.2685ZM114.17 12.5455H113.051V11.2386H111.99V12.5455H111.191V13.3977H111.99V16.6186C111.986 17.6094 112.743 18.0888 113.581 18.071C113.918 18.0675 114.145 18.0036 114.27 17.9574L114.078 17.0803C114.007 17.0945 113.875 17.1264 113.705 17.1264C113.36 17.1264 113.051 17.0128 113.051 16.3984V13.3977H114.17V12.5455ZM117.637 18.1101C118.827 18.1101 119.668 17.5241 119.91 16.6364L118.905 16.4553C118.713 16.9702 118.251 17.233 117.648 17.233C116.738 17.233 116.128 16.6435 116.099 15.5923H119.977V15.2159C119.977 13.245 118.798 12.4744 117.562 12.4744C116.042 12.4744 115.041 13.6321 115.041 15.3082C115.041 17.0021 116.028 18.1101 117.637 18.1101ZM116.103 14.7969C116.145 14.0227 116.706 13.3516 117.569 13.3516C118.393 13.3516 118.933 13.9624 118.937 14.7969H116.103ZM129.927 13.0923C129.679 11.5369 128.461 10.6278 126.923 10.6278C125.041 10.6278 123.653 12.0376 123.653 14.3636C123.653 16.6896 125.034 18.0994 126.923 18.0994C128.521 18.0994 129.689 17.098 129.927 15.6598L128.819 15.6562C128.631 16.5866 127.85 17.098 126.93 17.098C125.684 17.098 124.743 16.1428 124.743 14.3636C124.743 12.5987 125.68 11.6293 126.934 11.6293C127.861 11.6293 128.638 12.1513 128.819 13.0923H129.927ZM131.155 18H132.217V14.669C132.217 13.9553 132.767 13.4403 133.52 13.4403C133.74 13.4403 133.989 13.4794 134.074 13.5043V12.4886C133.968 12.4744 133.758 12.4638 133.623 12.4638C132.984 12.4638 132.437 12.826 132.238 13.4119H132.181V12.5455H131.155V18ZM137.149 18.1101C138.338 18.1101 139.18 17.5241 139.421 16.6364L138.416 16.4553C138.225 16.9702 137.763 17.233 137.159 17.233C136.25 17.233 135.639 16.6435 135.611 15.5923H139.489V15.2159C139.489 13.245 138.31 12.4744 137.074 12.4744C135.554 12.4744 134.553 13.6321 134.553 15.3082C134.553 17.0021 135.54 18.1101 137.149 18.1101ZM135.615 14.7969C135.657 14.0227 136.218 13.3516 137.081 13.3516C137.905 13.3516 138.445 13.9624 138.448 14.7969H135.615ZM142.254 18.1207C143.156 18.1207 143.664 17.6626 143.866 17.2543H143.909V18H144.946V14.3778C144.946 12.7905 143.696 12.4744 142.83 12.4744C141.842 12.4744 140.933 12.8722 140.578 13.8665L141.576 14.0938C141.732 13.7067 142.13 13.3338 142.844 13.3338C143.529 13.3338 143.881 13.6925 143.881 14.3104V14.3352C143.881 14.7223 143.483 14.7152 142.503 14.8288C141.469 14.9496 140.411 15.2195 140.411 16.4588C140.411 17.5312 141.217 18.1207 142.254 18.1207ZM142.485 17.2685C141.885 17.2685 141.452 16.9986 141.452 16.473C141.452 15.9048 141.956 15.7024 142.57 15.6207C142.915 15.5746 143.732 15.4822 143.884 15.3295V16.0327C143.884 16.679 143.369 17.2685 142.485 17.2685ZM148.906 12.5455H147.788V11.2386H146.726V12.5455H145.927V13.3977H146.726V16.6186C146.722 17.6094 147.479 18.0888 148.317 18.071C148.654 18.0675 148.882 18.0036 149.006 17.9574L148.814 17.0803C148.743 17.0945 148.612 17.1264 148.441 17.1264C148.097 17.1264 147.788 17.0128 147.788 16.3984V13.3977H148.906V12.5455ZM152.373 18.1101C153.563 18.1101 154.404 17.5241 154.646 16.6364L153.641 16.4553C153.449 16.9702 152.988 17.233 152.384 17.233C151.475 17.233 150.864 16.6435 150.836 15.5923H154.713V15.2159C154.713 13.245 153.534 12.4744 152.299 12.4744C150.779 12.4744 149.777 13.6321 149.777 15.3082C149.777 17.0021 150.765 18.1101 152.373 18.1101ZM150.839 14.7969C150.882 14.0227 151.443 13.3516 152.306 13.3516C153.13 13.3516 153.669 13.9624 153.673 14.7969H150.839ZM157.933 18.1065C158.928 18.1065 159.318 17.4993 159.51 17.1513H159.599V18H160.636V10.7273H159.574V13.4297H159.51C159.318 13.0923 158.956 12.4744 157.941 12.4744C156.623 12.4744 155.654 13.5149 155.654 15.2834C155.654 17.0483 156.609 18.1065 157.933 18.1065ZM158.168 17.201C157.22 17.201 156.726 16.3665 156.726 15.2727C156.726 14.1896 157.209 13.3764 158.168 13.3764C159.095 13.3764 159.592 14.1328 159.592 15.2727C159.592 16.4197 159.084 17.201 158.168 17.201Z" fill="#000634"/>
<path d="M17.799 18H18.8963V14.8288H21.9858V13.8878H18.8963V11.6719H22.3089V10.7273H17.799V18ZM23.5732 18H24.6349V12.5455H23.5732V18ZM24.1094 11.7038C24.4751 11.7038 24.7805 11.4197 24.7805 11.0717C24.7805 10.7237 24.4751 10.4361 24.1094 10.4361C23.7401 10.4361 23.4382 10.7237 23.4382 11.0717C23.4382 11.4197 23.7401 11.7038 24.1094 11.7038ZM27.1252 10.7273H26.0634V18H27.1252V10.7273ZM31.0998 12.5455H29.9812V11.2386H28.9194V12.5455H28.1204V13.3977H28.9194V16.6186C28.9158 17.6094 29.6722 18.0888 30.5103 18.071C30.8477 18.0675 31.0749 18.0036 31.1992 17.9574L31.0075 17.0803C30.9364 17.0945 30.805 17.1264 30.6346 17.1264C30.2901 17.1264 29.9812 17.0128 29.9812 16.3984V13.3977H31.0998V12.5455ZM34.5666 18.1101C35.7562 18.1101 36.5978 17.5241 36.8393 16.6364L35.8343 16.4553C35.6426 16.9702 35.1809 17.233 34.5772 17.233C33.6681 17.233 33.0574 16.6435 33.0289 15.5923H36.9068V15.2159C36.9068 13.245 35.7278 12.4744 34.492 12.4744C32.9721 12.4744 31.9707 13.6321 31.9707 15.3082C31.9707 17.0021 32.9579 18.1101 34.5666 18.1101ZM33.0325 14.7969C33.0751 14.0227 33.6362 13.3516 34.4991 13.3516C35.323 13.3516 35.8627 13.9624 35.8663 14.7969H33.0325ZM38.0849 18H39.1467V14.669C39.1467 13.9553 39.6971 13.4403 40.4499 13.4403C40.6701 13.4403 40.9187 13.4794 41.0039 13.5043V12.4886C40.8974 12.4744 40.6879 12.4638 40.5529 12.4638C39.9137 12.4638 39.3668 12.826 39.168 13.4119H39.1112V12.5455H38.0849V18ZM44.6545 18H45.6914V17.1513H45.7802C45.9719 17.4993 46.3626 18.1065 47.3569 18.1065C48.6779 18.1065 49.6367 17.0483 49.6367 15.2834C49.6367 13.5149 48.6637 12.4744 47.3462 12.4744C46.3342 12.4744 45.9684 13.0923 45.7802 13.4297H45.7163V10.7273H44.6545V18ZM45.695 15.2727C45.695 14.1328 46.1921 13.3764 47.119 13.3764C48.0813 13.3764 48.5643 14.1896 48.5643 15.2727C48.5643 16.3665 48.0671 17.201 47.119 17.201C46.2063 17.201 45.695 16.4197 45.695 15.2727ZM51.3049 20.0455C52.182 20.0455 52.736 19.5874 53.052 18.728L55.307 12.5561L54.16 12.5455L52.7786 16.7784H52.7218L51.3404 12.5455H50.204L52.1998 18.071L52.0684 18.4332C51.7985 19.1577 51.4185 19.218 50.8361 19.0582L50.5804 19.9283C50.7083 19.9851 50.9853 20.0455 51.3049 20.0455Z" fill="white"/>
</svg>
