<svg width="48" height="48" viewBox="0 0 48 48" fill="none" xmlns="http://www.w3.org/2000/svg">
<path d="M21.5 1.44338C23.047 0.550211 24.953 0.550212 26.5 1.44338L42.2846 10.5566C43.8316 11.4498 44.7846 13.1004 44.7846 14.8868V33.1133C44.7846 34.8996 43.8316 36.5502 42.2846 37.4434L26.5 46.5566C24.953 47.4498 23.047 47.4498 21.5 46.5566L5.71539 37.4434C4.16839 36.5502 3.21539 34.8996 3.21539 33.1132V14.8868C3.21539 13.1004 4.16839 11.4498 5.71539 10.5566L21.5 1.44338Z" fill="url(#paint0_linear)" fill-opacity="0.2"/>
<path d="M21.5079 5.51775C23.0509 4.63072 24.949 4.63072 26.492 5.51775L38.8125 12.6007C40.364 13.4927 41.3205 15.1458 41.3205 16.9355V31.0646C41.3205 32.8542 40.364 34.5073 38.8125 35.3993L26.492 42.4823C24.949 43.3693 23.0509 43.3693 21.5079 42.4823L9.18743 35.3993C7.63593 34.5073 6.67944 32.8542 6.67944 31.0645V16.9355C6.67944 15.1458 7.63593 13.4927 9.18743 12.6007L21.5079 5.51775Z" fill="url(#paint1_linear)"/>
<g clip-path="url(#clip0)">
<path d="M30.1818 26.7863C29.726 26.7863 29.3138 26.9533 28.9944 27.2196L26.5032 25.3957C26.7546 24.9839 26.9091 24.5114 26.9091 24.001C26.9091 23.5107 26.7646 23.0563 26.5313 22.6557L28.2391 21.4565C28.5619 21.7365 28.9857 21.912 29.4546 21.912C30.457 21.912 31.2727 21.131 31.2727 20.1712C31.2727 19.2114 30.457 18.4304 29.4546 18.4304C28.4521 18.4304 27.6364 19.2114 27.6364 20.1712C27.6364 20.4306 27.7 20.6747 27.8067 20.8961L26.1061 22.0904C25.5756 21.5545 24.8302 21.2157 24 21.2157C23.7683 21.2157 23.5457 21.2485 23.3295 21.2977L22.9107 20.228C23.5588 19.8655 24 19.1995 24 18.4304C24 17.2785 23.0213 16.3414 21.8182 16.3414C20.6151 16.3414 19.6364 17.2785 19.6364 18.4304C19.6364 19.5823 20.6151 20.5194 21.8182 20.5194C21.96 20.5194 22.098 20.5042 22.2323 20.4793L22.6509 21.5483C21.879 21.9394 21.3096 22.6438 21.1447 23.4914L19.6102 23.4052C19.4832 22.5633 18.7321 21.912 17.8182 21.912C16.8157 21.912 16 22.693 16 23.6528C16 24.6126 16.8157 25.3936 17.8182 25.3936C18.6581 25.3936 19.3601 24.8425 19.5678 24.1001L21.1105 24.1868C21.1605 24.8956 21.4784 25.5331 21.9808 25.9987L20.6304 27.7227C20.3309 27.5744 19.9962 27.4826 19.6364 27.4826C18.4332 27.4826 17.4546 28.4196 17.4546 29.5715C17.4546 30.7235 18.4332 31.6605 19.6364 31.6605C20.8395 31.6605 21.8182 30.7235 21.8182 29.5715C21.8182 29.0151 21.5863 28.5118 21.2147 28.137L22.5673 26.4102C22.9921 26.6427 23.4767 26.7862 24 26.7862C24.8095 26.7862 25.5414 26.4668 26.0693 25.9542L28.5514 27.7715C28.4348 28.001 28.3637 28.2552 28.3637 28.5271C28.3637 29.4869 29.1794 30.2679 30.1818 30.2679C31.1843 30.2679 32 29.4869 32 28.5271C32 27.5672 31.1843 26.7863 30.1818 26.7863Z" fill="white"/>
</g>
<defs>
<linearGradient id="paint0_linear" x1="24" y1="0" x2="24" y2="48" gradientUnits="userSpaceOnUse">
<stop stop-color="#EA5A09"/>
<stop offset="1" stop-color="#EE2F15"/>
</linearGradient>
<linearGradient id="paint1_linear" x1="24" y1="4.08511" x2="24" y2="43.9149" gradientUnits="userSpaceOnUse">
<stop stop-color="#EA5A09"/>
<stop offset="1" stop-color="#EE2F15"/>
</linearGradient>
<clipPath id="clip0">
<rect width="16" height="15.3191" fill="white" transform="translate(16 16.3404)"/>
</clipPath>
</defs>
</svg>
