<svg width="18" height="18" viewBox="0 0 18 18" fill="none" xmlns="http://www.w3.org/2000/svg">
<path d="M0.0258312 6.22944C0.435711 5.02158 1.10904 3.91029 2.00148 2.96873C2.07524 2.89094 2.17157 2.83581 2.27822 2.81037C2.38488 2.78492 2.49705 2.7903 2.6005 2.82581L4.72812 3.55206C4.87958 3.60368 5.041 3.62325 5.20118 3.60941C5.36135 3.59557 5.51646 3.54865 5.65575 3.47191C5.79504 3.39518 5.91518 3.29045 6.00784 3.16499C6.1005 3.03953 6.16347 2.89635 6.19238 2.74535L6.59727 0.621662C6.61688 0.518282 6.66828 0.422809 6.74493 0.347397C6.82158 0.271986 6.92 0.220047 7.02768 0.198194C8.32761 -0.0660646 9.67128 -0.0660646 10.9712 0.198194C11.0789 0.220047 11.1773 0.271986 11.254 0.347397C11.3306 0.422809 11.382 0.518282 11.4016 0.621662L11.8076 2.74535C11.8365 2.89635 11.8995 3.03953 11.9922 3.16499C12.0848 3.29045 12.205 3.39518 12.3442 3.47191C12.4835 3.54865 12.6386 3.59557 12.7988 3.60941C12.959 3.62325 13.1204 3.60368 13.2719 3.55206L15.4006 2.82581C15.504 2.79065 15.616 2.78556 15.7225 2.81119C15.8289 2.83682 15.925 2.89202 15.9985 2.96979C16.8904 3.91113 17.5634 5.02205 17.9731 6.22944C18.0069 6.32917 18.0089 6.43624 17.9789 6.53707C17.9489 6.6379 17.8882 6.72796 17.8044 6.79583L16.0795 8.19327C15.957 8.29265 15.8585 8.41628 15.791 8.55557C15.7235 8.69487 15.6886 8.84651 15.6886 8.99998C15.6886 9.15345 15.7235 9.30509 15.791 9.44438C15.8585 9.58368 15.957 9.7073 16.0795 9.80668L17.8044 11.2041C17.8882 11.272 17.9489 11.3621 17.9789 11.4629C18.0089 11.5637 18.0069 11.6708 17.9731 11.7705C17.5635 12.9783 16.8906 14.0896 15.9985 15.0312C15.9248 15.109 15.8284 15.1641 15.7218 15.1896C15.6151 15.215 15.5029 15.2097 15.3995 15.1741L13.2719 14.4479C13.1204 14.3963 12.959 14.3767 12.7988 14.3905C12.6386 14.4044 12.4835 14.4513 12.3442 14.528C12.205 14.6048 12.0848 14.7095 11.9922 14.835C11.8995 14.9604 11.8365 15.1036 11.8076 15.2546L11.4005 17.3794C11.3808 17.4824 11.3294 17.5775 11.253 17.6527C11.1766 17.7279 11.0785 17.7798 10.9712 17.8018C9.67129 18.0661 8.3276 18.0661 7.02768 17.8018C6.92 17.7799 6.82158 17.728 6.74493 17.6526C6.66828 17.5771 6.61688 17.4817 6.59727 17.3783L6.19238 15.2546C6.16347 15.1036 6.1005 14.9604 6.00784 14.835C5.91518 14.7095 5.79504 14.6048 5.65575 14.528C5.51646 14.4513 5.36135 14.4044 5.20118 14.3905C5.041 14.3767 4.87958 14.3963 4.72812 14.4479L2.59939 15.1741C2.49598 15.2093 2.38397 15.2144 2.27754 15.1888C2.1711 15.1631 2.07503 15.1079 2.00148 15.0302C1.10955 14.0888 0.436603 12.9779 0.0269406 11.7705C-0.00687487 11.6708 -0.00890229 11.5637 0.0211154 11.4629C0.051133 11.3621 0.111844 11.272 0.195553 11.2041L1.9205 9.80668C2.04304 9.7073 2.14147 9.58368 2.20897 9.44438C2.27648 9.30509 2.31144 9.15345 2.31144 8.99998C2.31144 8.84651 2.27648 8.69487 2.20897 8.55557C2.14147 8.41628 2.04304 8.29265 1.9205 8.19327L0.195553 6.79583C0.111844 6.72796 0.051133 6.6379 0.0211154 6.53707C-0.00890229 6.43624 -0.00687487 6.32917 0.0269406 6.22944H0.0258312ZM6.78142 8.99998C6.78142 9.56153 7.01516 10.1001 7.43122 10.4972C7.84729 10.8942 8.41159 11.1173 9 11.1173C9.5884 11.1173 10.1527 10.8942 10.5688 10.4972C10.9848 10.1001 11.2186 9.56153 11.2186 8.99998C11.2186 8.43842 10.9848 7.89987 10.5688 7.50279C10.1527 7.10571 9.5884 6.88264 9 6.88264C8.41159 6.88264 7.84729 7.10571 7.43122 7.50279C7.01516 7.89987 6.78142 8.43842 6.78142 8.99998Z" fill="white" fill-opacity="0.5"/>
</svg>
