<svg width="130" height="30" viewBox="0 0 130 30" fill="none" xmlns="http://www.w3.org/2000/svg">
<rect width="130" height="30" rx="4" fill="#EE3C15"/>
<path d="M34.7415 11.1534C32.9091 11.1364 31.7116 12.4531 31.7116 14.1065C31.7159 15.7727 32.9219 16.9744 34.4347 16.9744C35.3594 16.9744 36.152 16.5227 36.5994 15.7898H36.6676C36.6634 17.7969 35.9091 18.9688 34.6307 18.9688C33.7955 18.9688 33.2585 18.4574 33.0881 17.7116H31.7884C31.9801 19.1222 33.071 20.1193 34.6307 20.1193C36.6591 20.1193 37.929 18.3764 37.929 15.321C37.9247 12.1335 36.2969 11.1662 34.7415 11.1534ZM34.7457 12.2614C35.7557 12.2614 36.5014 13.1179 36.5014 14.0767C36.5057 15.0483 35.7173 15.9006 34.7202 15.9006C33.7188 15.9006 32.9943 15.0994 32.9901 14.0895C32.9901 13.0753 33.7443 12.2614 34.7457 12.2614ZM42.5067 20.1449C44.5224 20.1449 45.7028 18.5 45.7028 15.6406C45.7028 12.8026 44.5053 11.1534 42.5067 11.1534C40.5039 11.1534 39.3107 12.7983 39.3065 15.6406C39.3065 18.4957 40.4869 20.1406 42.5067 20.1449ZM42.5067 19.0071C41.3263 19.0071 40.6147 17.8224 40.6147 15.6406C40.619 13.4673 41.3306 12.2699 42.5067 12.2699C43.6786 12.2699 44.3945 13.4673 44.3945 15.6406C44.3945 17.8224 43.6829 19.0071 42.5067 19.0071ZM50.2528 20.1449C52.2685 20.1449 53.4489 18.5 53.4489 15.6406C53.4489 12.8026 52.2514 11.1534 50.2528 11.1534C48.25 11.1534 47.0568 12.7983 47.0526 15.6406C47.0526 18.4957 48.233 20.1406 50.2528 20.1449ZM50.2528 19.0071C49.0724 19.0071 48.3608 17.8224 48.3608 15.6406C48.3651 13.4673 49.0767 12.2699 50.2528 12.2699C51.4247 12.2699 52.1406 13.4673 52.1406 15.6406C52.1406 17.8224 51.429 19.0071 50.2528 19.0071ZM63.3395 18.5511L64.1449 17.7457L62.0994 15.7003L64.1449 13.6548L63.3395 12.8452L61.294 14.8906L59.2443 12.8452L58.4389 13.6548L60.4844 15.7003L58.4389 17.7457L59.2443 18.5511L61.294 16.5057L63.3395 18.5511ZM72.3427 20.1193C74.1239 20.1193 75.4322 19.054 75.4279 17.6051C75.4322 16.5014 74.7631 15.7088 73.604 15.5298V15.4616C74.516 15.2273 75.1083 14.5114 75.104 13.5312C75.1083 12.2486 74.0558 11.1534 72.3768 11.1534C70.7745 11.1534 69.4876 12.1207 69.445 13.5398H70.7191C70.7489 12.7386 71.5032 12.2528 72.3597 12.2528C73.2504 12.2528 73.8342 12.794 73.8299 13.5994C73.8342 14.4432 73.1566 14.9972 72.1893 14.9972H71.4521V16.071H72.1893C73.3995 16.071 74.0984 16.6847 74.0984 17.5625C74.0984 18.4105 73.3612 18.9858 72.3342 18.9858C71.3881 18.9858 70.6509 18.5 70.5998 17.7244H69.2617C69.3171 19.1477 70.5785 20.1193 72.3427 20.1193ZM80.0771 20.1449C82.0927 20.1449 83.2731 18.5 83.2731 15.6406C83.2731 12.8026 82.0756 11.1534 80.0771 11.1534C78.0742 11.1534 76.881 12.7983 76.8768 15.6406C76.8768 18.4957 78.0572 20.1406 80.0771 20.1449ZM80.0771 19.0071C78.8967 19.0071 78.185 17.8224 78.185 15.6406C78.1893 13.4673 78.9009 12.2699 80.0771 12.2699C81.2489 12.2699 81.9648 13.4673 81.9648 15.6406C81.9648 17.8224 81.2532 19.0071 80.0771 19.0071ZM87.8232 20.1449C89.8388 20.1449 91.0192 18.5 91.0192 15.6406C91.0192 12.8026 89.8217 11.1534 87.8232 11.1534C85.8203 11.1534 84.6271 12.7983 84.6229 15.6406C84.6229 18.4957 85.8033 20.1406 87.8232 20.1449ZM87.8232 19.0071C86.6428 19.0071 85.9311 17.8224 85.9311 15.6406C85.9354 13.4673 86.647 12.2699 87.8232 12.2699C88.995 12.2699 89.7109 13.4673 89.7109 15.6406C89.7109 17.8224 88.9993 19.0071 87.8232 19.0071ZM100.629 15.0526C100.364 14.0341 99.5675 13.3693 98.1527 13.3693C96.674 13.3693 95.6257 14.1491 95.6257 15.3082C95.6257 16.2372 96.1882 16.8551 97.4155 17.1278L98.5234 17.3707C99.1541 17.5114 99.4482 17.7926 99.4482 18.2017C99.4482 18.7088 98.907 19.1051 98.0717 19.1051C97.3089 19.1051 96.8189 18.777 96.6655 18.1335L95.4339 18.321C95.647 19.4801 96.6101 20.1321 98.0803 20.1321C99.6612 20.1321 100.756 19.2926 100.756 18.108C100.756 17.1832 100.168 16.6122 98.9666 16.3352L97.9268 16.0966C97.2067 15.9261 96.8956 15.6832 96.8999 15.2401C96.8956 14.7372 97.4411 14.3793 98.1655 14.3793C98.9581 14.3793 99.3246 14.8182 99.4737 15.2571L100.629 15.0526ZM102.157 20H103.431V13.4545H102.157V20ZM102.801 12.4446C103.24 12.4446 103.606 12.1037 103.606 11.6861C103.606 11.2685 103.24 10.9233 102.801 10.9233C102.358 10.9233 101.995 11.2685 101.995 11.6861C101.995 12.1037 102.358 12.4446 102.801 12.4446ZM105.009 20H110.263V18.892H106.735V18.8324L110.144 14.3835V13.4545H105.124V14.5625H108.555V14.6222L105.009 19.1264V20ZM114.4 20.1321C115.828 20.1321 116.838 19.429 117.127 18.3636L115.922 18.1463C115.691 18.7642 115.137 19.0795 114.413 19.0795C113.322 19.0795 112.589 18.3722 112.555 17.1108H117.208V16.6591C117.208 14.294 115.794 13.3693 114.311 13.3693C112.487 13.3693 111.285 14.7585 111.285 16.7699C111.285 18.8026 112.47 20.1321 114.4 20.1321ZM112.559 16.1562C112.61 15.2273 113.284 14.4219 114.319 14.4219C115.308 14.4219 115.956 15.1548 115.96 16.1562H112.559Z" fill="white"/>
<path d="M12.0625 9H9.4375C9.31901 9 9.21647 9.0475 9.12988 9.1425C9.04329 9.2375 9 9.35 9 9.48V12.36C9 12.49 9.04329 12.6025 9.12988 12.6975C9.21647 12.7925 9.31901 12.84 9.4375 12.84C9.55599 12.84 9.65853 12.7925 9.74512 12.6975C9.83171 12.6025 9.875 12.49 9.875 12.36V9.96H12.0625C12.181 9.96 12.2835 9.9125 12.3701 9.8175C12.4567 9.7225 12.5 9.61 12.5 9.48C12.5 9.35 12.4567 9.2375 12.3701 9.1425C12.2835 9.0475 12.181 9 12.0625 9ZM22.5625 17.16C22.444 17.16 22.3415 17.2075 22.2549 17.3025C22.1683 17.3975 22.125 17.51 22.125 17.64V20.04H19.9375C19.819 20.04 19.7165 20.0875 19.6299 20.1825C19.5433 20.2775 19.5 20.39 19.5 20.52C19.5 20.65 19.5433 20.7625 19.6299 20.8575C19.7165 20.9525 19.819 21 19.9375 21H22.5625C22.681 21 22.7835 20.9525 22.8701 20.8575C22.9567 20.7625 23 20.65 23 20.52V17.64C23 17.51 22.9567 17.3975 22.8701 17.3025C22.7835 17.2075 22.681 17.16 22.5625 17.16ZM12.0625 20.04H9.875V17.64C9.875 17.51 9.83171 17.3975 9.74512 17.3025C9.65853 17.2075 9.55599 17.16 9.4375 17.16C9.31901 17.16 9.21647 17.2075 9.12988 17.3025C9.04329 17.3975 9 17.51 9 17.64V20.52C9 20.65 9.04329 20.7625 9.12988 20.8575C9.21647 20.9525 9.31901 21 9.4375 21H12.0625C12.181 21 12.2835 20.9525 12.3701 20.8575C12.4567 20.7625 12.5 20.65 12.5 20.52C12.5 20.39 12.4567 20.2775 12.3701 20.1825C12.2835 20.0875 12.181 20.04 12.0625 20.04ZM22.5625 9H19.9375C19.819 9 19.7165 9.0475 19.6299 9.1425C19.5433 9.2375 19.5 9.35 19.5 9.48C19.5 9.61 19.5433 9.7225 19.6299 9.8175C19.7165 9.9125 19.819 9.96 19.9375 9.96H22.125V12.36C22.125 12.49 22.1683 12.6025 22.2549 12.6975C22.3415 12.7925 22.444 12.84 22.5625 12.84C22.681 12.84 22.7835 12.7925 22.8701 12.6975C22.9567 12.6025 23 12.49 23 12.36V9.48C23 9.35 22.9567 9.2375 22.8701 9.1425C22.7835 9.0475 22.681 9 22.5625 9Z" fill="white"/>
</svg>
