<svg width="130" height="30" viewBox="0 0 130 30" fill="none" xmlns="http://www.w3.org/2000/svg">
<rect width="130" height="30" rx="4" fill="#EE3C15"/>
<path d="M37.7884 20.1193C39.6037 20.1193 40.8864 19.0881 40.8949 17.6733C40.8864 16.5739 40.1151 15.6491 39.1392 15.4744V15.4233C39.9872 15.2188 40.5625 14.4219 40.571 13.4801C40.5625 12.1463 39.3864 11.1534 37.7884 11.1534C36.1733 11.1534 34.9972 12.1463 35.0057 13.4801C34.9972 14.4176 35.5724 15.2188 36.4375 15.4233V15.4744C35.4446 15.6491 34.6733 16.5739 34.6818 17.6733C34.6733 19.0881 35.956 20.1193 37.7884 20.1193ZM37.7884 19.0412C36.6974 19.0412 36.0071 18.4616 36.0156 17.5881C36.0071 16.6804 36.7571 16.0327 37.7884 16.0327C38.8026 16.0327 39.5526 16.6804 39.5611 17.5881C39.5526 18.4616 38.8665 19.0412 37.7884 19.0412ZM37.7884 14.9801C36.9062 14.9801 36.2798 14.4219 36.2884 13.5909C36.2798 12.7727 36.8849 12.2315 37.7884 12.2315C38.6747 12.2315 39.2798 12.7727 39.2884 13.5909C39.2798 14.4219 38.6577 14.9801 37.7884 14.9801ZM45.4599 20.1449C47.4755 20.1449 48.6559 18.5 48.6559 15.6406C48.6559 12.8026 47.4585 11.1534 45.4599 11.1534C43.457 11.1534 42.2638 12.7983 42.2596 15.6406C42.2596 18.4957 43.44 20.1406 45.4599 20.1449ZM45.4599 19.0071C44.2795 19.0071 43.5678 17.8224 43.5678 15.6406C43.5721 13.4673 44.2837 12.2699 45.4599 12.2699C46.6317 12.2699 47.3477 13.4673 47.3477 15.6406C47.3477 17.8224 46.636 19.0071 45.4599 19.0071ZM53.206 20.1449C55.2216 20.1449 56.402 18.5 56.402 15.6406C56.402 12.8026 55.2045 11.1534 53.206 11.1534C51.2031 11.1534 50.0099 12.7983 50.0057 15.6406C50.0057 18.4957 51.1861 20.1406 53.206 20.1449ZM53.206 19.0071C52.0256 19.0071 51.3139 17.8224 51.3139 15.6406C51.3182 13.4673 52.0298 12.2699 53.206 12.2699C54.3778 12.2699 55.0938 13.4673 55.0938 15.6406C55.0938 17.8224 54.3821 19.0071 53.206 19.0071ZM66.2926 18.5511L67.098 17.7457L65.0526 15.7003L67.098 13.6548L66.2926 12.8452L64.2472 14.8906L62.1974 12.8452L61.392 13.6548L63.4375 15.7003L61.392 17.7457L62.1974 18.5511L64.2472 16.5057L66.2926 18.5511ZM75.2063 20.1193C77.0217 20.1193 78.3043 19.0881 78.3129 17.6733C78.3043 16.5739 77.533 15.6491 76.5572 15.4744V15.4233C77.4052 15.2188 77.9805 14.4219 77.989 13.4801C77.9805 12.1463 76.8043 11.1534 75.2063 11.1534C73.5913 11.1534 72.4151 12.1463 72.4237 13.4801C72.4151 14.4176 72.9904 15.2188 73.8555 15.4233V15.4744C72.8626 15.6491 72.0913 16.5739 72.0998 17.6733C72.0913 19.0881 73.3739 20.1193 75.2063 20.1193ZM75.2063 19.0412C74.1154 19.0412 73.4251 18.4616 73.4336 17.5881C73.4251 16.6804 74.1751 16.0327 75.2063 16.0327C76.2205 16.0327 76.9705 16.6804 76.979 17.5881C76.9705 18.4616 76.2844 19.0412 75.2063 19.0412ZM75.2063 14.9801C74.3242 14.9801 73.6978 14.4219 73.7063 13.5909C73.6978 12.7727 74.3029 12.2315 75.2063 12.2315C76.0927 12.2315 76.6978 12.7727 76.7063 13.5909C76.6978 14.4219 76.0756 14.9801 75.2063 14.9801ZM82.8778 20.1449C84.8935 20.1449 86.0739 18.5 86.0739 15.6406C86.0739 12.8026 84.8764 11.1534 82.8778 11.1534C80.875 11.1534 79.6818 12.7983 79.6776 15.6406C79.6776 18.4957 80.858 20.1406 82.8778 20.1449ZM82.8778 19.0071C81.6974 19.0071 80.9858 17.8224 80.9858 15.6406C80.9901 13.4673 81.7017 12.2699 82.8778 12.2699C84.0497 12.2699 84.7656 13.4673 84.7656 15.6406C84.7656 17.8224 84.054 19.0071 82.8778 19.0071ZM90.6239 20.1449C92.6396 20.1449 93.82 18.5 93.82 15.6406C93.82 12.8026 92.6225 11.1534 90.6239 11.1534C88.6211 11.1534 87.4279 12.7983 87.4237 15.6406C87.4237 18.4957 88.604 20.1406 90.6239 20.1449ZM90.6239 19.0071C89.4435 19.0071 88.7319 17.8224 88.7319 15.6406C88.7362 13.4673 89.4478 12.2699 90.6239 12.2699C91.7958 12.2699 92.5117 13.4673 92.5117 15.6406C92.5117 17.8224 91.8001 19.0071 90.6239 19.0071ZM103.429 15.0526C103.165 14.0341 102.368 13.3693 100.953 13.3693C99.4748 13.3693 98.4265 14.1491 98.4265 15.3082C98.4265 16.2372 98.989 16.8551 100.216 17.1278L101.324 17.3707C101.955 17.5114 102.249 17.7926 102.249 18.2017C102.249 18.7088 101.708 19.1051 100.873 19.1051C100.11 19.1051 99.6197 18.777 99.4663 18.1335L98.2347 18.321C98.4478 19.4801 99.4109 20.1321 100.881 20.1321C102.462 20.1321 103.557 19.2926 103.557 18.108C103.557 17.1832 102.969 16.6122 101.767 16.3352L100.728 16.0966C100.007 15.9261 99.6964 15.6832 99.7006 15.2401C99.6964 14.7372 100.242 14.3793 100.966 14.3793C101.759 14.3793 102.125 14.8182 102.275 15.2571L103.429 15.0526ZM104.958 20H106.232V13.4545H104.958V20ZM105.602 12.4446C106.04 12.4446 106.407 12.1037 106.407 11.6861C106.407 11.2685 106.04 10.9233 105.602 10.9233C105.158 10.9233 104.796 11.2685 104.796 11.6861C104.796 12.1037 105.158 12.4446 105.602 12.4446ZM107.81 20H113.064V18.892H109.536V18.8324L112.945 14.3835V13.4545H107.925V14.5625H111.355V14.6222L107.81 19.1264V20ZM117.201 20.1321C118.629 20.1321 119.638 19.429 119.928 18.3636L118.722 18.1463C118.492 18.7642 117.938 19.0795 117.214 19.0795C116.123 19.0795 115.39 18.3722 115.356 17.1108H120.009V16.6591C120.009 14.294 118.594 13.3693 117.112 13.3693C115.288 13.3693 114.086 14.7585 114.086 16.7699C114.086 18.8026 115.271 20.1321 117.201 20.1321ZM115.36 16.1562C115.411 15.2273 116.085 14.4219 117.12 14.4219C118.109 14.4219 118.756 15.1548 118.761 16.1562H115.36Z" fill="white"/>
<path d="M12.0625 9H9.4375C9.31901 9 9.21647 9.0475 9.12988 9.1425C9.04329 9.2375 9 9.35 9 9.48V12.36C9 12.49 9.04329 12.6025 9.12988 12.6975C9.21647 12.7925 9.31901 12.84 9.4375 12.84C9.55599 12.84 9.65853 12.7925 9.74512 12.6975C9.83171 12.6025 9.875 12.49 9.875 12.36V9.96H12.0625C12.181 9.96 12.2835 9.9125 12.3701 9.8175C12.4567 9.7225 12.5 9.61 12.5 9.48C12.5 9.35 12.4567 9.2375 12.3701 9.1425C12.2835 9.0475 12.181 9 12.0625 9ZM22.5625 17.16C22.444 17.16 22.3415 17.2075 22.2549 17.3025C22.1683 17.3975 22.125 17.51 22.125 17.64V20.04H19.9375C19.819 20.04 19.7165 20.0875 19.6299 20.1825C19.5433 20.2775 19.5 20.39 19.5 20.52C19.5 20.65 19.5433 20.7625 19.6299 20.8575C19.7165 20.9525 19.819 21 19.9375 21H22.5625C22.681 21 22.7835 20.9525 22.8701 20.8575C22.9567 20.7625 23 20.65 23 20.52V17.64C23 17.51 22.9567 17.3975 22.8701 17.3025C22.7835 17.2075 22.681 17.16 22.5625 17.16ZM12.0625 20.04H9.875V17.64C9.875 17.51 9.83171 17.3975 9.74512 17.3025C9.65853 17.2075 9.55599 17.16 9.4375 17.16C9.31901 17.16 9.21647 17.2075 9.12988 17.3025C9.04329 17.3975 9 17.51 9 17.64V20.52C9 20.65 9.04329 20.7625 9.12988 20.8575C9.21647 20.9525 9.31901 21 9.4375 21H12.0625C12.181 21 12.2835 20.9525 12.3701 20.8575C12.4567 20.7625 12.5 20.65 12.5 20.52C12.5 20.39 12.4567 20.2775 12.3701 20.1825C12.2835 20.0875 12.181 20.04 12.0625 20.04ZM22.5625 9H19.9375C19.819 9 19.7165 9.0475 19.6299 9.1425C19.5433 9.2375 19.5 9.35 19.5 9.48C19.5 9.61 19.5433 9.7225 19.6299 9.8175C19.7165 9.9125 19.819 9.96 19.9375 9.96H22.125V12.36C22.125 12.49 22.1683 12.6025 22.2549 12.6975C22.3415 12.7925 22.444 12.84 22.5625 12.84C22.681 12.84 22.7835 12.7925 22.8701 12.6975C22.9567 12.6025 23 12.49 23 12.36V9.48C23 9.35 22.9567 9.2375 22.8701 9.1425C22.7835 9.0475 22.681 9 22.5625 9Z" fill="white"/>
</svg>
