<svg width="70" height="70" viewBox="0 0 70 70" fill="none" xmlns="http://www.w3.org/2000/svg">
<g filter="url(#filter0_d)">
<circle cx="35" cy="33" r="25" fill="#6026DD"/>
</g>
<path d="M42 32H36V26C36 25.7348 35.8946 25.4804 35.7071 25.2929C35.5196 25.1054 35.2652 25 35 25C34.7348 25 34.4804 25.1054 34.2929 25.2929C34.1054 25.4804 34 25.7348 34 26V32H28C27.7348 32 27.4804 32.1054 27.2929 32.2929C27.1054 32.4804 27 32.7348 27 33C27 33.2652 27.1054 33.5196 27.2929 33.7071C27.4804 33.8946 27.7348 34 28 34H34V40C34 40.2652 34.1054 40.5196 34.2929 40.7071C34.4804 40.8946 34.7348 41 35 41C35.2652 41 35.5196 40.8946 35.7071 40.7071C35.8946 40.5196 36 40.2652 36 40V34H42C42.2652 34 42.5196 33.8946 42.7071 33.7071C42.8946 33.5196 43 33.2652 43 33C43 32.7348 42.8946 32.4804 42.7071 32.2929C42.5196 32.1054 42.2652 32 42 32Z" fill="white"/>
<defs>
<filter id="filter0_d" x="0" y="0" width="70" height="70" filterUnits="userSpaceOnUse" color-interpolation-filters="sRGB">
<feFlood flood-opacity="0" result="BackgroundImageFix"/>
<feColorMatrix in="SourceAlpha" type="matrix" values="0 0 0 0 0 0 0 0 0 0 0 0 0 0 0 0 0 0 127 0"/>
<feOffset dy="2"/>
<feGaussianBlur stdDeviation="5"/>
<feColorMatrix type="matrix" values="0 0 0 0 0 0 0 0 0 0 0 0 0 0 0 0 0 0 0.25 0"/>
<feBlend mode="normal" in2="BackgroundImageFix" result="effect1_dropShadow"/>
<feBlend mode="normal" in="SourceGraphic" in2="effect1_dropShadow" result="shape"/>
</filter>
</defs>
</svg>
