<svg width="1032" height="53" viewBox="0 0 1032 53" fill="none" xmlns="http://www.w3.org/2000/svg">
<rect width="1032" height="53" fill="white"/>
<path d="M38.6037 24.6719H40.125C40.0952 23.1974 38.8381 22.1534 36.9801 22.1534C35.1477 22.1534 33.7713 23.1847 33.7756 24.7273C33.7756 25.9801 34.6662 26.7003 36.1023 27.071L37.0952 27.3267C38.0369 27.5653 38.6591 27.8594 38.6634 28.5369C38.6591 29.2827 37.9517 29.7812 36.9205 29.7812C35.9318 29.7812 35.1648 29.3381 35.1009 28.4219H33.5455C33.6094 30.1562 34.9006 31.1321 36.9332 31.1321C39.0256 31.1321 40.2401 30.0881 40.2443 28.5497C40.2401 27.0369 38.9915 26.3466 37.679 26.0355L36.8608 25.831C36.1449 25.6605 35.3693 25.358 35.3778 24.6293C35.3821 23.973 35.9702 23.4915 36.9588 23.4915C37.9006 23.4915 38.5227 23.9304 38.6037 24.6719ZM41.2702 23.598H43.9677V31H45.5359V23.598H48.2333V22.2727H41.2702V23.598ZM49.6417 31L50.3619 28.848H53.6431L54.3675 31H56.055L52.9783 22.2727H51.0266L47.9542 31H49.6417ZM50.788 27.5781L51.9684 24.0625H52.0366L53.217 27.5781H50.788ZM55.7663 23.598H58.4638V31H60.032V23.598H62.7294V22.2727H55.7663V23.598ZM69.5732 22.2727V27.8423C69.5732 28.9375 68.8104 29.7216 67.6129 29.7216C66.4112 29.7216 65.6527 28.9375 65.6527 27.8423V22.2727H64.0717V27.9744C64.0717 29.8494 65.478 31.1321 67.6129 31.1321C69.7393 31.1321 71.1541 29.8494 71.1541 27.9744V22.2727H69.5732ZM77.6154 24.6719H79.1367C79.1069 23.1974 77.8498 22.1534 75.9918 22.1534C74.1594 22.1534 72.783 23.1847 72.7873 24.7273C72.7873 25.9801 73.6779 26.7003 75.114 27.071L76.1069 27.3267C77.0487 27.5653 77.6708 27.8594 77.6751 28.5369C77.6708 29.2827 76.9634 29.7812 75.9322 29.7812C74.9435 29.7812 74.1765 29.3381 74.1126 28.4219H72.5572C72.6211 30.1562 73.9123 31.1321 75.945 31.1321C78.0373 31.1321 79.2518 30.0881 79.256 28.5497C79.2518 27.0369 78.0032 26.3466 76.6907 26.0355L75.8725 25.831C75.1566 25.6605 74.381 25.358 74.3896 24.6293C74.3938 23.973 74.9819 23.4915 75.9705 23.4915C76.9123 23.4915 77.5344 23.9304 77.6154 24.6719Z" fill="#B9C0C9"/>
<path d="M547.477 23.598H550.175V31H551.743V23.598H554.44V22.2727H547.477V23.598ZM563.206 26.6364C563.206 23.8153 561.484 22.1534 559.196 22.1534C556.903 22.1534 555.186 23.8153 555.186 26.6364C555.186 29.4531 556.903 31.1193 559.196 31.1193C561.484 31.1193 563.206 29.4574 563.206 26.6364ZM561.616 26.6364C561.616 28.6222 560.619 29.7003 559.196 29.7003C557.777 29.7003 556.776 28.6222 556.776 26.6364C556.776 24.6506 557.777 23.5724 559.196 23.5724C560.619 23.5724 561.616 24.6506 561.616 26.6364ZM563.942 23.598H566.64V31H568.208V23.598H570.905V22.2727H563.942V23.598ZM572.314 31L573.034 28.848H576.315L577.039 31H578.727L575.65 22.2727H573.699L570.626 31H572.314ZM573.46 27.5781L574.64 24.0625H574.708L575.889 27.5781H573.46ZM579.876 31H585.301V29.6747H581.457V22.2727H579.876V31ZM589.65 31H591.231V27.804H592.842L594.555 31H596.319L594.431 27.5398C595.458 27.1264 595.999 26.2486 595.999 25.0639C595.999 23.3977 594.925 22.2727 592.923 22.2727H589.65V31ZM591.231 26.4915V23.5938H592.68C593.86 23.5938 594.388 24.1349 594.388 25.0639C594.388 25.9929 593.86 26.4915 592.688 26.4915H591.231ZM597.455 31H603.165V29.6747H599.036V27.2926H602.837V25.9673H599.036V23.598H603.131V22.2727H597.455V31ZM605.911 22.2727H604.177L607.249 31H609.201L612.278 22.2727H610.539L608.272 29.142H608.183L605.911 22.2727ZM613.427 31H619.137V29.6747H615.008V27.2926H618.809V25.9673H615.008V23.598H619.103V22.2727H613.427V31ZM627.888 22.2727H626.316V28.2216H626.239L622.131 22.2727H620.716V31H622.297V25.0554H622.37L626.482 31H627.888V22.2727ZM635.112 22.2727V27.8423C635.112 28.9375 634.349 29.7216 633.152 29.7216C631.95 29.7216 631.192 28.9375 631.192 27.8423V22.2727H629.611V27.9744C629.611 29.8494 631.017 31.1321 633.152 31.1321C635.278 31.1321 636.693 29.8494 636.693 27.9744V22.2727H635.112ZM638.412 31H644.122V29.6747H639.993V27.2926H643.794V25.9673H639.993V23.598H644.088V22.2727H638.412V31Z" fill="#B9C0C9"/>
<path d="M718.477 23.598H721.175V31H722.743V23.598H725.44V22.2727H718.477V23.598ZM734.206 26.6364C734.206 23.8153 732.484 22.1534 730.196 22.1534C727.903 22.1534 726.186 23.8153 726.186 26.6364C726.186 29.4531 727.903 31.1193 730.196 31.1193C732.484 31.1193 734.206 29.4574 734.206 26.6364ZM732.616 26.6364C732.616 28.6222 731.619 29.7003 730.196 29.7003C728.777 29.7003 727.776 28.6222 727.776 26.6364C727.776 24.6506 728.777 23.5724 730.196 23.5724C731.619 23.5724 732.616 24.6506 732.616 26.6364ZM734.942 23.598H737.64V31H739.208V23.598H741.905V22.2727H734.942V23.598ZM743.314 31L744.034 28.848H747.315L748.039 31H749.727L746.65 22.2727H744.699L741.626 31H743.314ZM744.46 27.5781L745.64 24.0625H745.708L746.889 27.5781H744.46ZM750.876 31H756.301V29.6747H752.457V22.2727H750.876V31ZM761.817 22.2727H760.083L763.156 31H765.107L768.184 22.2727H766.445L764.178 29.142H764.089L761.817 22.2727ZM770.914 22.2727H769.333V31H770.914V22.2727ZM772.626 31H778.337V29.6747H774.207V27.2926H778.009V25.9673H774.207V23.598H778.303V22.2727H772.626V31ZM781.752 31H783.312L785.063 24.8764H785.131L786.879 31H788.438L790.901 22.2727H789.201L787.629 28.6903H787.552L785.869 22.2727H784.322L782.643 28.6861H782.562L780.989 22.2727H779.289L781.752 31ZM796.682 24.6719H798.203C798.173 23.1974 796.916 22.1534 795.058 22.1534C793.226 22.1534 791.849 23.1847 791.854 24.7273C791.854 25.9801 792.744 26.7003 794.18 27.071L795.173 27.3267C796.115 27.5653 796.737 27.8594 796.741 28.5369C796.737 29.2827 796.03 29.7812 794.999 29.7812C794.01 29.7812 793.243 29.3381 793.179 28.4219H791.624C791.688 30.1562 792.979 31.1321 795.011 31.1321C797.104 31.1321 798.318 30.0881 798.322 28.5497C798.318 27.0369 797.07 26.3466 795.757 26.0355L794.939 25.831C794.223 25.6605 793.447 25.358 793.456 24.6293C793.46 23.973 794.048 23.4915 795.037 23.4915C795.979 23.4915 796.601 23.9304 796.682 24.6719Z" fill="#B9C0C9"/>
<path d="M169.331 25.2173C169.062 23.2784 167.571 22.1534 165.636 22.1534C163.357 22.1534 161.639 23.8153 161.639 26.6364C161.639 29.4531 163.335 31.1193 165.636 31.1193C167.712 31.1193 169.088 29.777 169.331 28.1108L167.737 28.1023C167.537 29.125 166.702 29.7003 165.658 29.7003C164.243 29.7003 163.229 28.6392 163.229 26.6364C163.229 24.6676 164.234 23.5724 165.662 23.5724C166.723 23.5724 167.554 24.1733 167.737 25.2173H169.331ZM178.577 26.6364C178.577 23.8153 176.855 22.1534 174.567 22.1534C172.275 22.1534 170.557 23.8153 170.557 26.6364C170.557 29.4531 172.275 31.1193 174.567 31.1193C176.855 31.1193 178.577 29.4574 178.577 26.6364ZM176.988 26.6364C176.988 28.6222 175.99 29.7003 174.567 29.7003C173.148 29.7003 172.147 28.6222 172.147 26.6364C172.147 24.6506 173.148 23.5724 174.567 23.5724C175.99 23.5724 176.988 24.6506 176.988 26.6364ZM187.244 22.2727H185.671V28.2216H185.594L181.487 22.2727H180.072V31H181.653V25.0554H181.725L185.837 31H187.244V22.2727ZM188.583 23.598H191.28V31H192.848V23.598H195.546V22.2727H188.583V23.598ZM196.888 31H202.598V29.6747H198.469V27.2926H202.27V25.9673H198.469V23.598H202.564V22.2727H196.888V31ZM211.349 22.2727H209.777V28.2216H209.7L205.592 22.2727H204.177V31H205.758V25.0554H205.831L209.943 31H211.349V22.2727ZM212.688 23.598H215.386V31H216.954V23.598H219.651V22.2727H212.688V23.598ZM223.587 23.598H226.284V31H227.852V23.598H230.55V22.2727H223.587V23.598ZM231.295 22.2727L234.47 27.7443V31H236.047V27.7443L239.222 22.2727H237.436L235.301 26.1335H235.216L233.081 22.2727H231.295ZM240.341 31H241.922V28.0511H243.593C245.608 28.0511 246.691 26.8409 246.691 25.1619C246.691 23.4957 245.621 22.2727 243.614 22.2727H240.341V31ZM241.922 26.7514V23.5938H243.371C244.556 23.5938 245.08 24.233 245.08 25.1619C245.08 26.0909 244.556 26.7514 243.38 26.7514H241.922ZM248.064 31H253.774V29.6747H249.645V27.2926H253.446V25.9673H249.645V23.598H253.74V22.2727H248.064V31Z" fill="#B9C0C9"/>
<path d="M386.033 22.2727H384.46V28.2216H384.384L380.276 22.2727H378.861V31H380.442V25.0554H380.514L384.626 31H386.033V22.2727ZM388.876 31L389.596 28.848H392.877L393.602 31H395.289L392.213 22.2727H390.261L387.189 31H388.876ZM390.022 27.5781L391.203 24.0625H391.271L392.451 27.5781H390.022ZM396.439 22.2727V31H397.956V24.9915H398.037L400.449 30.9744H401.582L403.994 25.0043H404.075V31H405.592V22.2727H403.658L401.067 28.5966H400.964L398.374 22.2727H396.439ZM407.314 31H413.024V29.6747H408.895V27.2926H412.696V25.9673H408.895V23.598H412.99V22.2727H407.314V31Z" fill="#B9C0C9"/>
<path d="M872.861 31H878.286V29.6747H874.442V22.2727H872.861V31ZM881.107 31L881.827 28.848H885.108L885.832 31H887.52L884.443 22.2727H882.491L879.419 31H881.107ZM882.253 27.5781L883.433 24.0625H883.501L884.682 27.5781H882.253ZM893.272 24.6719H894.793C894.763 23.1974 893.506 22.1534 891.648 22.1534C889.816 22.1534 888.439 23.1847 888.444 24.7273C888.444 25.9801 889.334 26.7003 890.77 27.071L891.763 27.3267C892.705 27.5653 893.327 27.8594 893.331 28.5369C893.327 29.2827 892.62 29.7812 891.588 29.7812C890.6 29.7812 889.833 29.3381 889.769 28.4219H888.213C888.277 30.1562 889.569 31.1321 891.601 31.1321C893.694 31.1321 894.908 30.0881 894.912 28.5497C894.908 27.0369 893.659 26.3466 892.347 26.0355L891.529 25.831C890.813 25.6605 890.037 25.358 890.046 24.6293C890.05 23.973 890.638 23.4915 891.627 23.4915C892.569 23.4915 893.191 23.9304 893.272 24.6719ZM895.938 23.598H898.636V31H900.204V23.598H902.901V22.2727H895.938V23.598ZM907.22 31H908.801V27.804H910.412L912.125 31H913.889L912.001 27.5398C913.028 27.1264 913.57 26.2486 913.57 25.0639C913.57 23.3977 912.496 22.2727 910.493 22.2727H907.22V31ZM908.801 26.4915V23.5938H910.25C911.43 23.5938 911.959 24.1349 911.959 25.0639C911.959 25.9929 911.43 26.4915 910.259 26.4915H908.801ZM915.025 31H920.735V29.6747H916.606V27.2926H920.407V25.9673H916.606V23.598H920.701V22.2727H915.025V31ZM927.057 24.6719H928.578C928.548 23.1974 927.291 22.1534 925.433 22.1534C923.601 22.1534 922.224 23.1847 922.229 24.7273C922.229 25.9801 923.119 26.7003 924.555 27.071L925.548 27.3267C926.49 27.5653 927.112 27.8594 927.116 28.5369C927.112 29.2827 926.405 29.7812 925.374 29.7812C924.385 29.7812 923.618 29.3381 923.554 28.4219H921.999C922.062 30.1562 923.354 31.1321 925.386 31.1321C927.479 31.1321 928.693 30.0881 928.697 28.5497C928.693 27.0369 927.445 26.3466 926.132 26.0355L925.314 25.831C924.598 25.6605 923.822 25.358 923.831 24.6293C923.835 23.973 924.423 23.4915 925.412 23.4915C926.354 23.4915 926.976 23.9304 927.057 24.6719ZM930.107 31H931.688V28.0511H933.358C935.374 28.0511 936.456 26.8409 936.456 25.1619C936.456 23.4957 935.387 22.2727 933.38 22.2727H930.107V31ZM931.688 26.7514V23.5938H933.137C934.321 23.5938 934.846 24.233 934.846 25.1619C934.846 26.0909 934.321 26.7514 933.145 26.7514H931.688ZM945.628 26.6364C945.628 23.8153 943.906 22.1534 941.618 22.1534C939.325 22.1534 937.608 23.8153 937.608 26.6364C937.608 29.4531 939.325 31.1193 941.618 31.1193C943.906 31.1193 945.628 29.4574 945.628 26.6364ZM944.038 26.6364C944.038 28.6222 943.041 29.7003 941.618 29.7003C940.199 29.7003 939.197 28.6222 939.197 26.6364C939.197 24.6506 940.199 23.5724 941.618 23.5724C943.041 23.5724 944.038 24.6506 944.038 26.6364ZM954.294 22.2727H952.722V28.2216H952.645L948.537 22.2727H947.123V31H948.703V25.0554H948.776L952.888 31H954.294V22.2727ZM960.76 24.6719H962.281C962.251 23.1974 960.994 22.1534 959.136 22.1534C957.304 22.1534 955.928 23.1847 955.932 24.7273C955.932 25.9801 956.822 26.7003 958.259 27.071L959.251 27.3267C960.193 27.5653 960.815 27.8594 960.82 28.5369C960.815 29.2827 960.108 29.7812 959.077 29.7812C958.088 29.7812 957.321 29.3381 957.257 28.4219H955.702C955.766 30.1562 957.057 31.1321 959.089 31.1321C961.182 31.1321 962.396 30.0881 962.401 28.5497C962.396 27.0369 961.148 26.3466 959.835 26.0355L959.017 25.831C958.301 25.6605 957.526 25.358 957.534 24.6293C957.538 23.973 958.126 23.4915 959.115 23.4915C960.057 23.4915 960.679 23.9304 960.76 24.6719ZM963.81 31H969.52V29.6747H965.391V27.2926H969.192V25.9673H965.391V23.598H969.486V22.2727H963.81V31Z" fill="#B9C0C9"/>
</svg>
