<svg width="1032" height="53" viewBox="0 0 1032 53" fill="none" xmlns="http://www.w3.org/2000/svg">
<rect width="1032" height="53" fill="white"/>
<path d="M53.0824 31H54.2756L54.6463 28.75H55.8651L56.0653 27.5568H54.8423L55.1406 25.7159H56.3722L56.5682 24.5227H55.3366L55.7074 22.2727H54.5142L54.1435 24.5227H52.2685L52.6392 22.2727H51.446L51.0753 24.5227H49.8523L49.6562 25.7159H50.8793L50.581 27.5568H49.3494L49.1491 28.75H50.3849L50.0142 31H51.2074L51.5781 28.75H53.4531L53.0824 31ZM51.7741 27.5568L52.0724 25.7159H53.9474L53.6491 27.5568H51.7741Z" fill="#B9C0C9"/>
<path d="M600.861 31H602.442V27.804H604.053L605.766 31H607.53L605.642 27.5398C606.669 27.1264 607.21 26.2486 607.21 25.0639C607.21 23.3977 606.136 22.2727 604.134 22.2727H600.861V31ZM602.442 26.4915V23.5938H603.891C605.071 23.5938 605.599 24.1349 605.599 25.0639C605.599 25.9929 605.071 26.4915 603.899 26.4915H602.442ZM608.665 31H614.376V29.6747H610.246V27.2926H614.048V25.9673H610.246V23.598H614.342V22.2727H608.665V31ZM620.697 24.6719H622.219C622.189 23.1974 620.932 22.1534 619.074 22.1534C617.241 22.1534 615.865 23.1847 615.869 24.7273C615.869 25.9801 616.76 26.7003 618.196 27.071L619.189 27.3267C620.131 27.5653 620.753 27.8594 620.757 28.5369C620.753 29.2827 620.045 29.7812 619.014 29.7812C618.026 29.7812 617.259 29.3381 617.195 28.4219H615.639C615.703 30.1562 616.994 31.1321 619.027 31.1321C621.119 31.1321 622.334 30.0881 622.338 28.5497C622.334 27.0369 621.085 26.3466 619.773 26.0355L618.955 25.831C618.239 25.6605 617.463 25.358 617.472 24.6293C617.476 23.973 618.064 23.4915 619.053 23.4915C619.994 23.4915 620.616 23.9304 620.697 24.6719ZM623.748 31H625.328V28.0511H626.999C629.015 28.0511 630.097 26.8409 630.097 25.1619C630.097 23.4957 629.027 22.2727 627.02 22.2727H623.748V31ZM625.328 26.7514V23.5938H626.777C627.962 23.5938 628.486 24.233 628.486 25.1619C628.486 26.0909 627.962 26.7514 626.786 26.7514H625.328ZM639.268 26.6364C639.268 23.8153 637.547 22.1534 635.259 22.1534C632.966 22.1534 631.249 23.8153 631.249 26.6364C631.249 29.4531 632.966 31.1193 635.259 31.1193C637.547 31.1193 639.268 29.4574 639.268 26.6364ZM637.679 26.6364C637.679 28.6222 636.682 29.7003 635.259 29.7003C633.839 29.7003 632.838 28.6222 632.838 26.6364C632.838 24.6506 633.839 23.5724 635.259 23.5724C636.682 23.5724 637.679 24.6506 637.679 26.6364ZM647.935 22.2727H646.363V28.2216H646.286L642.178 22.2727H640.763V31H642.344V25.0554H642.417L646.529 31H647.935V22.2727ZM654.401 24.6719H655.922C655.892 23.1974 654.635 22.1534 652.777 22.1534C650.945 22.1534 649.568 23.1847 649.572 24.7273C649.572 25.9801 650.463 26.7003 651.899 27.071L652.892 27.3267C653.834 27.5653 654.456 27.8594 654.46 28.5369C654.456 29.2827 653.749 29.7812 652.717 29.7812C651.729 29.7812 650.962 29.3381 650.898 28.4219H649.342C649.406 30.1562 650.697 31.1321 652.73 31.1321C654.822 31.1321 656.037 30.0881 656.041 28.5497C656.037 27.0369 654.788 26.3466 653.476 26.0355L652.658 25.831C651.942 25.6605 651.166 25.358 651.175 24.6293C651.179 23.973 651.767 23.4915 652.756 23.4915C653.697 23.4915 654.32 23.9304 654.401 24.6719ZM657.451 31H663.161V29.6747H659.032V27.2926H662.833V25.9673H659.032V23.598H663.127V22.2727H657.451V31Z" fill="#B9C0C9"/>
<path d="M130.818 31C133.477 31 135.054 29.3551 135.054 26.6278C135.054 23.9091 133.477 22.2727 130.878 22.2727H127.861V31H130.818ZM129.442 29.6321V23.6406H130.788C132.561 23.6406 133.486 24.6293 133.486 26.6278C133.486 28.6349 132.561 29.6321 130.741 29.6321H129.442ZM137.208 31L137.928 28.848H141.21L141.934 31H143.621L140.545 22.2727H138.593L135.521 31H137.208ZM138.354 27.5781L139.535 24.0625H139.603L140.783 27.5781H138.354ZM143.333 23.598H146.03V31H147.598V23.598H150.296V22.2727H143.333V23.598ZM151.638 31H157.348V29.6747H153.219V27.2926H157.02V25.9673H153.219V23.598H157.314V22.2727H151.638V31Z" fill="#B9C0C9"/>
<path d="M262.659 26.6364C262.659 23.8153 260.938 22.1534 258.649 22.1534C256.357 22.1534 254.639 23.8153 254.639 26.6364C254.639 29.4531 256.357 31.1193 258.649 31.1193C259.203 31.1193 259.723 31.0213 260.196 30.8338L260.916 31.75H262.45L261.24 30.1989C262.118 29.4318 262.659 28.2173 262.659 26.6364ZM258.112 28.0682L259.293 29.6193C259.088 29.6747 258.875 29.7003 258.649 29.7003C257.23 29.7003 256.229 28.6222 256.229 26.6364C256.229 24.6506 257.23 23.5724 258.649 23.5724C260.072 23.5724 261.07 24.6506 261.07 26.6364C261.07 27.7102 260.78 28.5156 260.286 29.0312L259.544 28.0682H258.112ZM269.667 22.2727V27.8423C269.667 28.9375 268.904 29.7216 267.707 29.7216C266.505 29.7216 265.746 28.9375 265.746 27.8423V22.2727H264.165V27.9744C264.165 29.8494 265.572 31.1321 267.707 31.1321C269.833 31.1321 271.248 29.8494 271.248 27.9744V22.2727H269.667ZM272.966 31H278.676V29.6747H274.547V27.2926H278.348V25.9673H274.547V23.598H278.642V22.2727H272.966V31ZM284.998 24.6719H286.52C286.49 23.1974 285.233 22.1534 283.375 22.1534C281.542 22.1534 280.166 23.1847 280.17 24.7273C280.17 25.9801 281.061 26.7003 282.497 27.071L283.49 27.3267C284.431 27.5653 285.054 27.8594 285.058 28.5369C285.054 29.2827 284.346 29.7812 283.315 29.7812C282.326 29.7812 281.559 29.3381 281.495 28.4219H279.94C280.004 30.1562 281.295 31.1321 283.328 31.1321C285.42 31.1321 286.635 30.0881 286.639 28.5497C286.635 27.0369 285.386 26.3466 284.074 26.0355L283.255 25.831C282.539 25.6605 281.764 25.358 281.772 24.6293C281.777 23.973 282.365 23.4915 283.353 23.4915C284.295 23.4915 284.917 23.9304 284.998 24.6719ZM287.665 23.598H290.362V31H291.93V23.598H294.628V22.2727H287.665V23.598ZM297.551 22.2727H295.97V31H297.551V22.2727ZM307.061 26.6364C307.061 23.8153 305.34 22.1534 303.051 22.1534C300.759 22.1534 299.042 23.8153 299.042 26.6364C299.042 29.4531 300.759 31.1193 303.051 31.1193C305.34 31.1193 307.061 29.4574 307.061 26.6364ZM305.472 26.6364C305.472 28.6222 304.475 29.7003 303.051 29.7003C301.632 29.7003 300.631 28.6222 300.631 26.6364C300.631 24.6506 301.632 23.5724 303.051 23.5724C304.475 23.5724 305.472 24.6506 305.472 26.6364ZM315.728 22.2727H314.156V28.2216H314.079L309.971 22.2727H308.556V31H310.137V25.0554H310.21L314.322 31H315.728V22.2727ZM321.548 31L322.268 28.848H325.549L326.274 31H327.961L324.885 22.2727H322.933L319.86 31H321.548ZM322.694 27.5781L323.875 24.0625H323.943L325.123 27.5781H322.694ZM336.283 22.2727H334.71V28.2216H334.634L330.526 22.2727H329.111V31H330.692V25.0554H330.764L334.876 31H336.283V22.2727ZM342.748 24.6719H344.27C344.24 23.1974 342.983 22.1534 341.125 22.1534C339.292 22.1534 337.916 23.1847 337.92 24.7273C337.92 25.9801 338.811 26.7003 340.247 27.071L341.24 27.3267C342.181 27.5653 342.804 27.8594 342.808 28.5369C342.804 29.2827 342.096 29.7812 341.065 29.7812C340.076 29.7812 339.309 29.3381 339.245 28.4219H337.69C337.754 30.1562 339.045 31.1321 341.078 31.1321C343.17 31.1321 344.385 30.0881 344.389 28.5497C344.385 27.0369 343.136 26.3466 341.824 26.0355L341.005 25.831C340.289 25.6605 339.514 25.358 339.522 24.6293C339.527 23.973 340.115 23.4915 341.103 23.4915C342.045 23.4915 342.667 23.9304 342.748 24.6719ZM347.635 31H349.195L350.946 24.8764H351.014L352.761 31H354.321L356.784 22.2727H355.084L353.511 28.6903H353.435L351.751 22.2727H350.205L348.526 28.6861H348.445L346.872 22.2727H345.172L347.635 31ZM357.88 31H363.591V29.6747H359.461V27.2926H363.262V25.9673H359.461V23.598H363.556V22.2727H357.88V31ZM365.169 31H366.75V27.804H368.361L370.074 31H371.838L369.951 27.5398C370.978 27.1264 371.519 26.2486 371.519 25.0639C371.519 23.3977 370.445 22.2727 368.442 22.2727H365.169V31ZM366.75 26.4915V23.5938H368.199C369.38 23.5938 369.908 24.1349 369.908 25.0639C369.908 25.9929 369.38 26.4915 368.208 26.4915H366.75ZM372.974 31H378.684V29.6747H374.555V27.2926H378.356V25.9673H374.555V23.598H378.65V22.2727H372.974V31ZM383.221 31C385.88 31 387.456 29.3551 387.456 26.6278C387.456 23.9091 385.88 22.2727 383.28 22.2727H380.263V31H383.221ZM381.844 29.6321V23.6406H383.191C384.963 23.6406 385.888 24.6293 385.888 26.6278C385.888 28.6349 384.963 29.6321 383.144 29.6321H381.844Z" fill="#B9C0C9"/>
<path d="M934.659 26.6364C934.659 23.8153 932.938 22.1534 930.649 22.1534C928.357 22.1534 926.639 23.8153 926.639 26.6364C926.639 29.4531 928.357 31.1193 930.649 31.1193C932.938 31.1193 934.659 29.4574 934.659 26.6364ZM933.07 26.6364C933.07 28.6222 932.072 29.7003 930.649 29.7003C929.23 29.7003 928.229 28.6222 928.229 26.6364C928.229 24.6506 929.23 23.5724 930.649 23.5724C932.072 23.5724 933.07 24.6506 933.07 26.6364ZM936.154 31H937.735V28.0511H939.405C941.421 28.0511 942.503 26.8409 942.503 25.1619C942.503 23.4957 941.434 22.2727 939.426 22.2727H936.154V31ZM937.735 26.7514V23.5938H939.184C940.368 23.5938 940.892 24.233 940.892 25.1619C940.892 26.0909 940.368 26.7514 939.192 26.7514H937.735ZM943.493 23.598H946.19V31H947.759V23.598H950.456V22.2727H943.493V23.598ZM953.379 22.2727H951.798V31H953.379V22.2727ZM962.89 26.6364C962.89 23.8153 961.168 22.1534 958.88 22.1534C956.587 22.1534 954.87 23.8153 954.87 26.6364C954.87 29.4531 956.587 31.1193 958.88 31.1193C961.168 31.1193 962.89 29.4574 962.89 26.6364ZM961.3 26.6364C961.3 28.6222 960.303 29.7003 958.88 29.7003C957.461 29.7003 956.459 28.6222 956.459 26.6364C956.459 24.6506 957.461 23.5724 958.88 23.5724C960.303 23.5724 961.3 24.6506 961.3 26.6364ZM971.556 22.2727H969.984V28.2216H969.907L965.799 22.2727H964.384V31H965.965V25.0554H966.038L970.15 31H971.556V22.2727ZM978.022 24.6719H979.543C979.513 23.1974 978.256 22.1534 976.398 22.1534C974.566 22.1534 973.189 23.1847 973.194 24.7273C973.194 25.9801 974.084 26.7003 975.52 27.071L976.513 27.3267C977.455 27.5653 978.077 27.8594 978.081 28.5369C978.077 29.2827 977.37 29.7812 976.338 29.7812C975.35 29.7812 974.583 29.3381 974.519 28.4219H972.963C973.027 30.1562 974.319 31.1321 976.351 31.1321C978.444 31.1321 979.658 30.0881 979.662 28.5497C979.658 27.0369 978.409 26.3466 977.097 26.0355L976.279 25.831C975.563 25.6605 974.787 25.358 974.796 24.6293C974.8 23.973 975.388 23.4915 976.377 23.4915C977.319 23.4915 977.941 23.9304 978.022 24.6719Z" fill="#B9C0C9"/>
</svg>
