<svg width="30" height="29" viewBox="0 0 30 29" fill="none" xmlns="http://www.w3.org/2000/svg">
<rect width="30" height="29" rx="14.5" fill="#000634"/>
<path d="M8.84782 16.3277L8.0207 19.9047C7.99217 20.0355 7.99314 20.171 8.02356 20.3013C8.05398 20.4316 8.11307 20.5535 8.19651 20.658C8.27995 20.7626 8.38564 20.8471 8.50586 20.9054C8.62607 20.9638 8.75778 20.9945 8.89135 20.9953C8.95359 21.0016 9.0163 21.0016 9.07854 20.9953L12.67 20.1664L19.5655 13.2828L15.7172 9.43527L8.84782 16.3277Z" fill="white"/>
<path d="M21.7333 9.8366L19.1648 7.26286C18.996 7.09451 18.7675 7 18.5293 7C18.2911 7 18.0625 7.09451 17.8937 7.26286L16.4658 8.69369L20.3097 12.5456L21.7376 11.1147C21.8212 11.0306 21.8874 10.9307 21.9324 10.8209C21.9774 10.7111 22.0003 10.5935 21.9999 10.4748C21.9995 10.3561 21.9758 10.2386 21.93 10.1291C21.8842 10.0196 21.8174 9.92019 21.7333 9.8366V9.8366Z" fill="white"/>
</svg>
