<svg width="30" height="29" viewBox="0 0 30 29" fill="none" xmlns="http://www.w3.org/2000/svg">
<rect width="30" height="29" rx="14.5" fill="#EE1515"/>
<path d="M23 10.5122C23 10.7034 22.9242 10.8879 22.7872 11.0307C22.6501 11.1736 22.4613 11.2649 22.2564 11.2872L22.1579 11.2927H21.4463L20.4097 21.0644C20.3532 21.5946 20.086 22.0864 19.66 22.4442C19.234 22.8019 18.6797 23.0001 18.1048 23H11.8952C11.3203 23.0001 10.766 22.8019 10.34 22.4442C9.91396 22.0864 9.64676 21.5946 9.59032 21.0644L8.55368 11.2927H7.84211C7.61877 11.2927 7.40457 11.2105 7.24665 11.0641C7.08872 10.9177 7 10.7192 7 10.5122C7 10.3052 7.08872 10.1067 7.24665 9.96031C7.40457 9.81394 7.61877 9.73171 7.84211 9.73171H12.0526C12.0526 9.37297 12.1289 9.01775 12.277 8.68633C12.4251 8.3549 12.6422 8.05376 12.9159 7.8001C13.1896 7.54644 13.5145 7.34522 13.8721 7.20794C14.2297 7.07066 14.6129 7 15 7C15.3871 7 15.7703 7.07066 16.1279 7.20794C16.4855 7.34522 16.8104 7.54644 17.0841 7.8001C17.3578 8.05376 17.5749 8.3549 17.723 8.68633C17.8711 9.01775 17.9474 9.37297 17.9474 9.73171H22.1579C22.3812 9.73171 22.5954 9.81394 22.7534 9.96031C22.9113 10.1067 23 10.3052 23 10.5122ZM16.8947 13.0488C16.7421 13.0488 16.5947 13.1 16.4796 13.193C16.3646 13.286 16.2898 13.4144 16.2691 13.5545L16.2632 13.6341V19.0976L16.2691 19.1772C16.2899 19.3173 16.3647 19.4457 16.4797 19.5386C16.5947 19.6315 16.7421 19.6827 16.8947 19.6827C17.0473 19.6827 17.1948 19.6315 17.3098 19.5386C17.4248 19.4457 17.4996 19.3173 17.5204 19.1772L17.5263 19.0976V13.6341L17.5204 13.5545C17.4997 13.4144 17.4249 13.286 17.3098 13.193C17.1948 13.1 17.0474 13.0488 16.8947 13.0488ZM13.1053 13.0488C12.9526 13.0488 12.8052 13.1 12.6902 13.193C12.5751 13.286 12.5003 13.4144 12.4796 13.5545L12.4737 13.6341V19.0976L12.4796 19.1772C12.5004 19.3173 12.5752 19.4457 12.6902 19.5386C12.8052 19.6315 12.9527 19.6827 13.1053 19.6827C13.2579 19.6827 13.4053 19.6315 13.5203 19.5386C13.6353 19.4457 13.7101 19.3173 13.7309 19.1772L13.7368 19.0976V13.6341L13.7309 13.5545C13.7102 13.4144 13.6354 13.286 13.5204 13.193C13.4053 13.1 13.2579 13.0488 13.1053 13.0488ZM15 8.56098C14.665 8.56098 14.3437 8.68432 14.1068 8.90388C13.8699 9.12343 13.7368 9.42121 13.7368 9.73171H16.2632C16.2632 9.42121 16.1301 9.12343 15.8932 8.90388C15.6563 8.68432 15.335 8.56098 15 8.56098Z" fill="white"/>
</svg>
