<svg width="70" height="29" viewBox="0 0 70 29" fill="none" xmlns="http://www.w3.org/2000/svg">
<rect width="30" height="29" rx="14.5" fill="#000634"/>
<rect x="40" width="30" height="29" rx="14.5" fill="#EE1515"/>
<path d="M63 10.5122C63 10.7034 62.9242 10.8879 62.7872 11.0307C62.6501 11.1736 62.4613 11.2649 62.2564 11.2872L62.1579 11.2927H61.4463L60.4097 21.0644C60.3532 21.5946 60.086 22.0864 59.66 22.4442C59.234 22.8019 58.6797 23.0001 58.1048 23H51.8952C51.3203 23.0001 50.766 22.8019 50.34 22.4442C49.914 22.0864 49.6468 21.5946 49.5903 21.0644L48.5537 11.2927H47.8421C47.6188 11.2927 47.4046 11.2105 47.2466 11.0641C47.0887 10.9177 47 10.7192 47 10.5122C47 10.3052 47.0887 10.1067 47.2466 9.96031C47.4046 9.81394 47.6188 9.73171 47.8421 9.73171H52.0526C52.0526 9.37297 52.1289 9.01775 52.277 8.68633C52.4251 8.3549 52.6422 8.05376 52.9159 7.8001C53.1896 7.54644 53.5145 7.34522 53.8721 7.20794C54.2297 7.07066 54.6129 7 55 7C55.3871 7 55.7703 7.07066 56.1279 7.20794C56.4855 7.34522 56.8104 7.54644 57.0841 7.8001C57.3578 8.05376 57.5749 8.3549 57.723 8.68633C57.8711 9.01775 57.9474 9.37297 57.9474 9.73171H62.1579C62.3812 9.73171 62.5954 9.81394 62.7534 9.96031C62.9113 10.1067 63 10.3052 63 10.5122ZM56.8947 13.0488C56.7421 13.0488 56.5947 13.1 56.4796 13.193C56.3646 13.286 56.2898 13.4144 56.2691 13.5545L56.2632 13.6341V19.0976L56.2691 19.1772C56.2899 19.3173 56.3647 19.4457 56.4797 19.5386C56.5947 19.6315 56.7421 19.6827 56.8947 19.6827C57.0473 19.6827 57.1948 19.6315 57.3098 19.5386C57.4248 19.4457 57.4996 19.3173 57.5204 19.1772L57.5263 19.0976V13.6341L57.5204 13.5545C57.4997 13.4144 57.4249 13.286 57.3098 13.193C57.1948 13.1 57.0474 13.0488 56.8947 13.0488ZM53.1053 13.0488C52.9526 13.0488 52.8052 13.1 52.6902 13.193C52.5751 13.286 52.5003 13.4144 52.4796 13.5545L52.4737 13.6341V19.0976L52.4796 19.1772C52.5004 19.3173 52.5752 19.4457 52.6902 19.5386C52.8052 19.6315 52.9527 19.6827 53.1053 19.6827C53.2579 19.6827 53.4053 19.6315 53.5203 19.5386C53.6353 19.4457 53.7101 19.3173 53.7309 19.1772L53.7368 19.0976V13.6341L53.7309 13.5545C53.7102 13.4144 53.6354 13.286 53.5204 13.193C53.4053 13.1 53.2579 13.0488 53.1053 13.0488ZM55 8.56098C54.665 8.56098 54.3437 8.68432 54.1068 8.90388C53.8699 9.12343 53.7368 9.42121 53.7368 9.73171H56.2632C56.2632 9.42121 56.1301 9.12343 55.8932 8.90388C55.6563 8.68432 55.335 8.56098 55 8.56098Z" fill="white"/>
<path d="M8.84782 16.3277L8.0207 19.9047C7.99217 20.0355 7.99314 20.171 8.02356 20.3013C8.05398 20.4316 8.11307 20.5535 8.19651 20.658C8.27995 20.7626 8.38564 20.8471 8.50586 20.9054C8.62607 20.9638 8.75778 20.9945 8.89135 20.9953C8.95359 21.0016 9.0163 21.0016 9.07854 20.9953L12.67 20.1664L19.5655 13.2828L15.7172 9.43527L8.84782 16.3277Z" fill="white"/>
<path d="M21.7333 9.8366L19.1648 7.26286C18.996 7.09451 18.7675 7 18.5293 7C18.2911 7 18.0625 7.09451 17.8937 7.26286L16.4658 8.69369L20.3097 12.5456L21.7376 11.1147C21.8212 11.0306 21.8874 10.9307 21.9324 10.8209C21.9774 10.7111 22.0003 10.5935 21.9999 10.4748C21.9995 10.3561 21.9758 10.2386 21.93 10.1291C21.8842 10.0196 21.8174 9.92019 21.7333 9.8366Z" fill="white"/>
</svg>
