<svg width="35" height="35" viewBox="0 0 35 35" fill="none" xmlns="http://www.w3.org/2000/svg">
<path d="M3.75 0C2.75544 0 1.80161 0.395088 1.09835 1.09835C0.395088 1.80161 0 2.75544 0 3.75V31.25C0 32.2446 0.395088 33.1984 1.09835 33.9016C1.80161 34.6049 2.75544 35 3.75 35H31.25C32.2446 35 33.1984 34.6049 33.9016 33.9016C34.6049 33.1984 35 32.2446 35 31.25V3.75C35 2.75544 34.6049 1.80161 33.9016 1.09835C33.1984 0.395088 32.2446 0 31.25 0H3.75ZM15.885 8.49C16.0014 8.60611 16.0938 8.74405 16.1568 8.89592C16.2198 9.04778 16.2522 9.21058 16.2522 9.375C16.2522 9.53942 16.2198 9.70222 16.1568 9.85408C16.0938 10.0059 16.0014 10.1439 15.885 10.26L11.51 14.635C11.2823 14.8625 10.9756 14.9933 10.6538 15.0003C10.332 15.0073 10.0199 14.8899 9.7825 14.6725L7.9075 12.96C7.78009 12.8511 7.67588 12.7177 7.60107 12.5677C7.52627 12.4177 7.48239 12.2542 7.47205 12.0869C7.46171 11.9196 7.48512 11.752 7.54088 11.5939C7.59665 11.4358 7.68364 11.2906 7.79667 11.1668C7.9097 11.0431 8.04647 10.9433 8.19883 10.8735C8.3512 10.8036 8.51606 10.7652 8.6836 10.7603C8.85114 10.7555 9.01794 10.7844 9.17408 10.8453C9.33022 10.9063 9.47252 10.998 9.5925 11.115L10.585 12.02L14.115 8.49C14.2311 8.37359 14.3691 8.28123 14.5209 8.21822C14.6728 8.1552 14.8356 8.12277 15 8.12277C15.1644 8.12277 15.3272 8.1552 15.4791 8.21822C15.6309 8.28123 15.7689 8.37359 15.885 8.49V8.49ZM15.885 20.99C16.0014 21.1061 16.0938 21.2441 16.1568 21.3959C16.2198 21.5478 16.2522 21.7106 16.2522 21.875C16.2522 22.0394 16.2198 22.2022 16.1568 22.3541C16.0938 22.5059 16.0014 22.6439 15.885 22.76L11.51 27.135C11.2823 27.3625 10.9756 27.4933 10.6538 27.5003C10.332 27.5073 10.0199 27.3899 9.7825 27.1725L7.9075 25.46C7.67528 25.2335 7.54021 24.9255 7.53085 24.6013C7.52149 24.277 7.63857 23.9618 7.85733 23.7222C8.0761 23.4827 8.37943 23.3376 8.70322 23.3176C9.02701 23.2976 9.3459 23.4042 9.5925 23.615L10.585 24.5225L14.115 20.99C14.2311 20.8736 14.3691 20.7812 14.5209 20.7182C14.6728 20.6552 14.8356 20.6228 15 20.6228C15.1644 20.6228 15.3272 20.6552 15.4791 20.7182C15.6309 20.7812 15.7689 20.8736 15.885 20.99V20.99ZM20 22.5H26.25C26.5815 22.5 26.8995 22.6317 27.1339 22.8661C27.3683 23.1005 27.5 23.4185 27.5 23.75C27.5 24.0815 27.3683 24.3995 27.1339 24.6339C26.8995 24.8683 26.5815 25 26.25 25H20C19.6685 25 19.3505 24.8683 19.1161 24.6339C18.8817 24.3995 18.75 24.0815 18.75 23.75C18.75 23.4185 18.8817 23.1005 19.1161 22.8661C19.3505 22.6317 19.6685 22.5 20 22.5ZM18.75 11.25C18.75 10.9185 18.8817 10.6005 19.1161 10.3661C19.3505 10.1317 19.6685 10 20 10H26.25C26.5815 10 26.8995 10.1317 27.1339 10.3661C27.3683 10.6005 27.5 10.9185 27.5 11.25C27.5 11.5815 27.3683 11.8995 27.1339 12.1339C26.8995 12.3683 26.5815 12.5 26.25 12.5H20C19.6685 12.5 19.3505 12.3683 19.1161 12.1339C18.8817 11.8995 18.75 11.5815 18.75 11.25Z" fill="white"/>
</svg>
