<svg width="40" height="40" viewBox="0 0 40 40" fill="none" xmlns="http://www.w3.org/2000/svg">
<circle cx="20" cy="20" r="20" fill="#EE2F15" fill-opacity="0.1"/>
<path d="M20 6.15387C21.8183 6.15387 23.6188 6.51201 25.2987 7.20785C26.9785 7.90368 28.5049 8.92358 29.7907 10.2093C31.0764 11.495 32.0963 13.0214 32.7921 14.7013C33.488 16.3812 33.8461 18.1817 33.8461 20C33.8461 21.8183 33.488 23.6188 32.7921 25.2987C32.0963 26.9786 31.0764 28.505 29.7907 29.7907C28.5049 31.0765 26.9785 32.0964 25.2987 32.7922C23.6188 33.488 21.8183 33.8462 20 33.8462C16.3277 33.8462 12.8059 32.3874 10.2093 29.7907C7.6126 27.1941 6.15381 23.6723 6.15381 20C6.15381 16.3278 7.6126 12.806 10.2093 10.2093C12.8059 7.61266 16.3277 6.15387 20 6.15387ZM20 24.6154C19.5409 24.6154 19.1007 24.7978 18.7761 25.1223C18.4515 25.4469 18.2692 25.8871 18.2692 26.3462C18.2692 26.8052 18.4515 27.2454 18.7761 27.57C19.1007 27.8946 19.5409 28.0769 20 28.0769C20.459 28.0769 20.8992 27.8946 21.2238 27.57C21.5484 27.2454 21.7307 26.8052 21.7307 26.3462C21.7307 25.8871 21.5484 25.4469 21.2238 25.1223C20.8992 24.7978 20.459 24.6154 20 24.6154ZM20 11.9231C19.7299 11.923 19.4684 12.0177 19.2609 12.1905C19.0534 12.3634 18.9132 12.6036 18.8646 12.8693L18.8461 13.0769V21.1539L18.8646 21.3616C18.9127 21.6276 19.0528 21.8683 19.2603 22.0416C19.4678 22.2149 19.7296 22.3098 20 22.3098C20.2703 22.3098 20.5321 22.2149 20.7396 22.0416C20.9471 21.8683 21.0872 21.6276 21.1353 21.3616L21.1538 21.1539V13.0769L21.1353 12.8693C21.0867 12.6036 20.9465 12.3634 20.739 12.1905C20.5316 12.0177 20.27 11.923 20 11.9231Z" fill="#EE2F15"/>
</svg>
