<svg width="20" height="20" viewBox="0 0 20 20" fill="none" xmlns="http://www.w3.org/2000/svg">
<path d="M10.0011 8.36694e-07C4.47548 -0.00223355 0 4.47101 0 9.99218C0 14.3582 2.79969 18.0695 6.69869 19.4325C7.22377 19.5643 7.14334 19.1912 7.14334 18.9364V17.2048C4.11127 17.56 3.98838 15.5536 3.78505 15.2184C3.37392 14.5168 2.40197 14.3381 2.69244 14.0029C3.38286 13.6476 4.08669 14.0923 4.90225 15.2966C5.49212 16.1703 6.64283 16.0228 7.22601 15.8776C7.35337 15.3525 7.62596 14.8833 8.00134 14.519C4.85979 13.956 3.55044 12.0389 3.55044 9.7598C3.55044 8.65378 3.91465 7.63714 4.62965 6.81712C4.17384 5.46531 4.6721 4.3079 4.73914 4.13585C6.03731 4.01966 7.38688 5.06536 7.4919 5.14803C8.22925 4.94917 9.07161 4.84415 10.0145 4.84415C10.9619 4.84415 11.8065 4.95364 12.5506 5.15473C12.803 4.96257 14.0543 4.06435 15.2609 4.17384C15.3257 4.34588 15.8128 5.47648 15.3838 6.81041C16.1077 7.63267 16.4764 8.65825 16.4764 9.76651C16.4764 12.0501 15.1581 13.9694 12.0076 14.5235C12.2774 14.7889 12.4917 15.1054 12.6379 15.4545C12.784 15.8036 12.8592 16.1783 12.8589 16.5568V19.0705C12.8768 19.2716 12.8589 19.4705 13.1941 19.4705C17.1512 18.1365 20 14.3984 20 9.99441C20 4.47101 15.5223 8.36694e-07 10.0011 8.36694e-07Z" fill="white"/>
</svg>
