<svg width="58" height="58" viewBox="0 0 58 58" fill="none" xmlns="http://www.w3.org/2000/svg">
<path d="M26.5 1.44338C28.047 0.550212 29.953 0.550212 31.5 1.44338L51.6147 13.0566C53.1617 13.9498 54.1147 15.6004 54.1147 17.3868V40.6132C54.1147 42.3996 53.1617 44.0502 51.6147 44.9434L31.5 56.5566C29.953 57.4498 28.047 57.4498 26.5 56.5566L6.38526 44.9434C4.83826 44.0502 3.88526 42.3996 3.88526 40.6132V17.3868C3.88526 15.6004 4.83826 13.9498 6.38526 13.0566L26.5 1.44338Z" fill="url(#paint0_linear)" fill-opacity="0.1"/>
<path d="M26.4999 6.27669C28.0469 5.38352 29.9529 5.38352 31.4999 6.27669L47.4289 15.4733C48.9759 16.3664 49.9289 18.0171 49.9289 19.8034V38.1966C49.9289 39.9829 48.9759 41.6335 47.4289 42.5267L31.4999 51.7233C29.9529 52.6164 28.0469 52.6164 26.4999 51.7233L10.571 42.5267C9.02397 41.6335 8.07097 39.9829 8.07097 38.1966V19.8034C8.07097 18.0171 9.02397 16.3664 10.571 15.4733L26.4999 6.27669Z" fill="url(#paint1_linear)"/>
<g clip-path="url(#clip0)">
<path d="M36.4696 32.5161C35.9188 32.5161 35.4208 32.7269 35.0348 33.063L32.0247 30.7611C32.3284 30.2414 32.5151 29.645 32.5151 29.0009C32.5151 28.3821 32.3405 27.8088 32.0586 27.3032L34.1221 25.7896C34.5122 26.1431 35.0243 26.3646 35.5909 26.3646C36.8022 26.3646 37.7878 25.3789 37.7878 24.1676C37.7878 22.9563 36.8022 21.9706 35.5909 21.9706C34.3795 21.9706 33.3939 22.9562 33.3939 24.1676C33.3939 24.495 33.4708 24.8031 33.5997 25.0825L31.5448 26.5897C30.9037 25.9134 30.0031 25.4858 28.9999 25.4858C28.7199 25.4858 28.451 25.5272 28.1897 25.5893L27.6837 24.2393C28.4668 23.7818 28.9999 22.9413 28.9999 21.9707C28.9999 20.5169 27.8174 19.3343 26.3636 19.3343C24.9098 19.3343 23.7272 20.5169 23.7272 21.9707C23.7272 23.4244 24.9098 24.607 26.3636 24.607C26.5349 24.607 26.7016 24.5878 26.864 24.5564L27.3697 25.9056C26.4371 26.3991 25.749 27.2881 25.5498 28.3578L23.6955 28.249C23.5421 27.1865 22.6346 26.3646 21.5302 26.3646C20.3189 26.3646 19.3333 27.3502 19.3333 28.5615C19.3333 29.7729 20.3189 30.7585 21.5302 30.7585C22.5452 30.7585 23.3933 30.063 23.6444 29.126L25.5085 29.2354C25.5689 30.13 25.953 30.9345 26.5601 31.5221L24.9284 33.6979C24.5665 33.5107 24.162 33.3948 23.7272 33.3948C22.2734 33.3948 21.0908 34.5774 21.0908 36.0312C21.0908 37.485 22.2734 38.6675 23.7272 38.6675C25.181 38.6675 26.3636 37.485 26.3636 36.0312C26.3636 35.3289 26.0834 34.6938 25.6343 34.2208L27.2687 32.0414C27.782 32.3349 28.3676 32.516 28.9999 32.516C29.9781 32.516 30.8624 32.1129 31.5003 31.466L34.4995 33.7595C34.3587 34.0491 34.2727 34.3699 34.2727 34.713C34.2727 35.9243 35.2583 36.9099 36.4696 36.9099C37.681 36.9099 38.6666 35.9243 38.6666 34.713C38.6666 33.5017 37.681 32.5161 36.4696 32.5161Z" fill="white"/>
</g>
<defs>
<linearGradient id="paint0_linear" x1="29" y1="0" x2="29" y2="58" gradientUnits="userSpaceOnUse">
<stop stop-color="#EA5A09"/>
<stop offset="1" stop-color="#EE2F15"/>
</linearGradient>
<linearGradient id="paint1_linear" x1="28.9999" y1="4.83331" x2="28.9999" y2="53.1666" gradientUnits="userSpaceOnUse">
<stop stop-color="#EA5A09"/>
<stop offset="1" stop-color="#EE2F15"/>
</linearGradient>
<clipPath id="clip0">
<rect width="19.3333" height="19.3333" fill="white" transform="translate(19.3333 19.3333)"/>
</clipPath>
</defs>
</svg>
